<svg width="92" height="92" viewBox="0 0 92 92" fill="none" xmlns="http://www.w3.org/2000/svg">
<g filter="url(#filter0_d_0_1)">
<circle cx="46" cy="38" r="30" fill="#FBE9C7"/>
</g>
<g clip-path="url(#clip0_0_1)">
<path d="M32.4297 31.3258H37.3733C37.6322 31.3258 37.8421 31.116 37.8421 30.8571C37.8421 30.5981 37.6322 30.3883 37.3733 30.3883H32.4297C32.1708 30.3883 31.9609 30.5981 31.9609 30.8571C31.9609 31.116 32.1708 31.3258 32.4297 31.3258Z" fill="#08090D"/>
<path d="M37.2039 33.5825H35.251C34.9921 33.5825 34.7822 33.7923 34.7822 34.0513C34.7822 34.3102 34.9921 34.52 35.251 34.52H37.2039C37.4627 34.52 37.6726 34.3102 37.6726 34.0513C37.6726 33.7923 37.4627 33.5825 37.2039 33.5825Z" fill="#08090D"/>
<path d="M30.4688 36.8331H35.2508C35.5096 36.8331 35.7195 36.6233 35.7195 36.3644C35.7195 36.1054 35.5096 35.8956 35.2508 35.8956H30.4688C30.2099 35.8956 30 36.1054 30 36.3644C30 36.6233 30.2099 36.8331 30.4688 36.8331Z" fill="#08090D"/>
<path d="M37.8421 45.1431C37.8421 44.8841 37.6322 44.6743 37.3733 44.6743H32.4297C32.1708 44.6743 31.9609 44.8841 31.9609 45.1431C31.9609 45.402 32.1708 45.6118 32.4297 45.6118H37.3733C37.6322 45.6118 37.8421 45.402 37.8421 45.1431Z" fill="#08090D"/>
<path d="M37.2039 41.4805H35.251C34.9921 41.4805 34.7822 41.6903 34.7822 41.9492C34.7822 42.2082 34.9921 42.418 35.251 42.418H37.2039C37.4627 42.418 37.6726 42.2082 37.6726 41.9492C37.6726 41.6903 37.4627 41.4805 37.2039 41.4805Z" fill="#08090D"/>
<path d="M35.7195 39.6357C35.7195 39.3768 35.5096 39.167 35.2508 39.167H30.4688C30.2099 39.167 30 39.3768 30 39.6357C30 39.8947 30.2099 40.1045 30.4688 40.1045H35.2508C35.5096 40.1045 35.7195 39.8947 35.7195 39.6357Z" fill="#08090D"/>
<path d="M49.9703 32.3645C50.2293 32.3645 50.4391 32.1547 50.4391 31.8958V31.1803C50.4391 30.9214 50.2293 30.7115 49.9703 30.7115C49.7114 30.7115 49.5016 30.9214 49.5016 31.1803V31.8958C49.5016 32.1547 49.7114 32.3645 49.9703 32.3645Z" fill="#08090D"/>
<path d="M55.1245 32.8462C54.9414 32.6632 54.6447 32.6632 54.4616 32.8462L53.9557 33.3522C53.7726 33.5353 53.7726 33.832 53.9557 34.0151C54.1388 34.1982 54.4355 34.1981 54.6186 34.0151L55.1245 33.5092C55.3075 33.3261 55.3075 33.0294 55.1245 32.8462Z" fill="#08090D"/>
<path d="M56.0747 37.5312C55.8158 37.5312 55.606 37.7411 55.606 38C55.606 38.2589 55.8158 38.4688 56.0747 38.4688H56.7901C57.0491 38.4688 57.2589 38.2589 57.2589 38C57.2589 37.7411 57.0491 37.5312 56.7901 37.5312H56.0747Z" fill="#08090D"/>
<path d="M54.6186 41.9849C54.4355 41.8019 54.1387 41.8019 53.9557 41.9849C53.7726 42.168 53.7726 42.4648 53.9557 42.6478L54.4616 43.1538C54.6448 43.3369 54.9415 43.3368 55.1245 43.1538C55.3076 42.9707 55.3076 42.6739 55.1245 42.4908L54.6186 41.9849Z" fill="#08090D"/>
<path d="M49.5016 44.1045V44.8199C49.5016 45.0789 49.7114 45.2887 49.9703 45.2887C50.2293 45.2887 50.4391 45.0789 50.4391 44.8199V44.1045C50.4391 43.8456 50.2293 43.6357 49.9703 43.6357C49.7114 43.6357 49.5016 43.8456 49.5016 44.1045Z" fill="#08090D"/>
<path d="M45.3224 41.9849L44.8165 42.4908C44.6334 42.674 44.6334 42.9707 44.8165 43.1538C44.9996 43.3369 45.2964 43.3368 45.4794 43.1538L45.9853 42.6478C46.1684 42.4647 46.1684 42.168 45.9853 41.9849C45.8023 41.8019 45.5055 41.8019 45.3224 41.9849Z" fill="#08090D"/>
<path d="M43.1504 37.5312C42.8915 37.5312 42.6816 37.7411 42.6816 38C42.6816 38.2589 42.8915 38.4688 43.1504 38.4688H43.8659C44.1248 38.4688 44.3346 38.2589 44.3346 38C44.3346 37.7411 44.1248 37.5312 43.8659 37.5312H43.1504Z" fill="#08090D"/>
<path d="M45.9858 33.3522L45.4799 32.8462C45.2968 32.6632 45 32.6632 44.817 32.8462C44.6339 33.0294 44.6339 33.3261 44.817 33.5092L45.3229 34.0151C45.506 34.1982 45.8028 34.1981 45.9858 34.0151C46.1689 33.832 46.1689 33.5353 45.9858 33.3522Z" fill="#08090D"/>
<path d="M52.4908 38.0003C52.4908 37.7413 52.281 37.5315 52.0221 37.5315H50.439V34.0513C50.439 33.7923 50.2292 33.5825 49.9702 33.5825C49.7113 33.5825 49.5015 33.7923 49.5015 34.0513V38.0003C49.5015 38.2592 49.7113 38.469 49.9702 38.469H52.0221C52.281 38.469 52.4908 38.2592 52.4908 38.0003Z" fill="#08090D"/>
<path d="M58.8586 37.9228C59.117 37.9071 59.3138 37.6849 59.2981 37.4265C58.9999 32.5076 54.9026 28.6544 49.9703 28.6544C44.817 28.6544 40.6245 32.8469 40.6245 38.0002C40.6245 43.1535 44.817 47.346 49.9703 47.346C54.5871 47.346 58.5265 43.9634 59.2118 39.3987C59.2503 39.1427 59.0739 38.904 58.8178 38.8655C58.5625 38.8272 58.3231 39.0034 58.2847 39.2595C57.6691 43.3604 54.1281 46.4085 49.9703 46.4085C45.334 46.4085 41.562 42.6366 41.562 38.0003C41.562 33.364 45.334 29.592 49.9703 29.592C54.4078 29.592 58.094 33.0583 58.3623 37.4834C58.3779 37.7417 58.5999 37.9378 58.8586 37.9228Z" fill="#08090D"/>
<path d="M49.9709 25.9707C48.3221 25.9707 46.7067 26.3128 45.2198 26.9525H36.9492C36.6903 26.9525 36.4805 27.1623 36.4805 27.4212C36.4805 27.6801 36.6903 27.89 36.9492 27.89H43.4563C42.5765 28.4562 41.7665 29.1392 41.0524 29.9277C40.8787 30.1195 40.8933 30.416 41.0852 30.5898C41.2771 30.7636 41.5734 30.7489 41.7473 30.557C43.8474 28.2381 46.8448 26.9082 49.9709 26.9082C56.087 26.9082 61.0629 31.884 61.0629 38.0001C61.0629 44.1162 56.0871 49.0921 49.9709 49.0921C43.8548 49.0921 38.879 44.1163 38.879 38.0001C38.879 35.8584 39.4908 33.7796 40.6482 31.9885C40.7887 31.7711 40.7263 31.481 40.5088 31.3405C40.2914 31.2 40.0013 31.2623 39.8607 31.4798C38.6051 33.4228 37.9415 35.6775 37.9415 38.0001C37.9415 42.2355 40.1418 45.9663 43.4593 48.1103H36.9493C36.6904 48.1103 36.4805 48.3201 36.4805 48.5791C36.4805 48.838 36.6904 49.0478 36.9493 49.0478H45.2133C46.6733 49.679 48.2819 50.0296 49.971 50.0296C56.604 50.0296 62.0004 44.6332 62.0004 38.0001C62.0004 31.3671 56.604 25.9707 49.9709 25.9707Z" fill="#08090D"/>
</g>
<defs>
<filter id="filter0_d_0_1" x="0" y="0" width="92" height="92" filterUnits="userSpaceOnUse" color-interpolation-filters="sRGB">
<feFlood flood-opacity="0" result="BackgroundImageFix"/>
<feColorMatrix in="SourceAlpha" type="matrix" values="0 0 0 0 0 0 0 0 0 0 0 0 0 0 0 0 0 0 127 0" result="hardAlpha"/>
<feOffset dy="8"/>
<feGaussianBlur stdDeviation="8"/>
<feColorMatrix type="matrix" values="0 0 0 0 0 0 0 0 0 0 0 0 0 0 0 0 0 0 0.04 0"/>
<feBlend mode="normal" in2="BackgroundImageFix" result="effect1_dropShadow_0_1"/>
<feBlend mode="normal" in="SourceGraphic" in2="effect1_dropShadow_0_1" result="shape"/>
</filter>
<clipPath id="clip0_0_1">
<rect width="32" height="32" fill="white" transform="translate(30 22)"/>
</clipPath>
</defs>
</svg>
