<svg width="92" height="92" viewBox="0 0 92 92" fill="none" xmlns="http://www.w3.org/2000/svg">
<g filter="url(#filter0_d_0_1)">
<circle cx="46" cy="38" r="30" fill="#FBE9C7"/>
</g>
<g clip-path="url(#clip0_0_1)">
<path d="M57.5024 22H56.1265C55.5218 22 55.5218 22.9376 56.1265 22.9376H57.5024C58.9232 22.9376 60.0792 24.0894 60.0792 25.5051V36.3549C60.0792 37.7707 58.9233 38.9225 57.5024 38.9225H55.9419C55.839 38.9225 55.7389 38.9564 55.6571 39.019L52.7938 41.2092V39.3913C52.7938 39.1324 52.584 38.9225 52.325 38.9225H46.6192C46.1519 38.9225 45.7028 38.7992 45.3068 38.5647V33.3019C45.3068 32.3162 44.8047 31.4452 44.0423 30.93V25.5051C44.0423 24.0894 45.1983 22.9376 46.6192 22.9376H53.1886C53.7933 22.9376 53.7933 22 53.1886 22H46.6192C44.6813 22 43.1047 23.5724 43.1047 25.5051V30.5179C42.89 30.4667 42.6663 30.4387 42.4362 30.4387H33.8539C32.2711 30.4387 30.9834 31.7232 30.9834 33.3019V34.3143C30.9834 34.919 31.921 34.919 31.921 34.3143V33.3019C31.921 32.2402 32.7881 31.3764 33.8539 31.3764H42.4362C43.5021 31.3764 44.3692 32.2402 44.3692 33.3019V38.7514C44.3636 38.7927 44.3638 38.8344 44.3692 38.8755V41.8579C44.3692 41.9169 44.3656 41.9756 44.3603 42.034H43.3935C42.3282 42.034 41.44 42.8029 41.2559 43.8135C41.2133 43.8295 41.1723 43.852 41.1344 43.8812L39.0375 45.5003V44.2523C39.0375 43.9934 38.8277 43.7835 38.5687 43.7835H33.8539C32.7881 43.7835 31.921 42.9197 31.921 41.8579V37.1272C31.921 36.5225 30.9834 36.5225 30.9834 37.1272V41.858C30.9834 43.4368 32.2711 44.7212 33.8539 44.7212H38.0999V46.4546C38.0999 46.8307 38.5566 47.0562 38.8553 46.8257L41.2203 44.9996V50.2738C41.2203 51.4693 42.1953 52.4418 43.3936 52.4418H46.2705V53.5358C46.2705 53.9117 46.7272 54.1376 47.0258 53.9069L48.9234 52.4418H49.484C50.6822 52.4418 51.6572 51.4693 51.6572 50.2738V49.4415C51.6572 48.8368 50.7196 48.8368 50.7196 49.4415V50.2738C50.7196 50.9523 50.1653 51.5042 49.484 51.5042H48.7634C48.6597 51.5042 48.5589 51.5386 48.4769 51.6019L47.2081 52.5815V51.973C47.2081 51.714 46.9983 51.5041 46.7393 51.5041H43.3935C42.7122 51.5041 42.1579 50.9522 42.1579 50.2738V44.202C42.1579 43.5236 42.7122 42.9717 43.3935 42.9717H49.484C50.1652 42.9717 50.7196 43.5236 50.7196 44.202V46.5035C50.7196 47.1083 51.6572 47.1083 51.6572 46.5035V44.2021C51.6572 43.0066 50.6822 42.0341 49.484 42.0341H45.3015C45.305 41.9755 45.3068 39.6076 45.3068 39.6076C45.7202 39.7738 46.1634 39.8602 46.6192 39.8602H51.8562V42.158C51.8562 42.5332 52.3109 42.759 52.6099 42.5304L56.1008 39.8602H57.5024C59.4403 39.8602 61.0169 38.2878 61.0169 36.355V25.5051C61.0168 23.5724 59.4402 22 57.5024 22V22Z" fill="#08090D"/>
<path d="M53.2325 25.4639C52.6372 25.3119 52.0307 25.7822 52.0307 26.3973C52.0307 27.0694 51.7857 27.717 51.3414 28.2206L50.0497 29.6823C49.966 29.554 49.8215 29.469 49.6569 29.469H47.1353C46.8763 29.469 46.6665 29.6789 46.6665 29.9378V35.6115C46.6665 35.8704 46.8763 36.0803 47.1353 36.0803H49.6569C49.8464 36.0803 50.0092 35.9677 50.0831 35.8061C50.5936 36.118 51.1852 36.2866 51.7871 36.2866H56.2435C56.9245 36.2866 57.4863 35.6957 57.4543 35.0165C57.4401 34.7157 57.4556 30.6768 57.4556 30.5871C57.4556 29.9188 56.9119 29.3749 56.2449 29.3749L53.9275 29.368L54.0234 29.1408C54.4619 28.1023 54.3897 26.8981 53.8305 25.9194C53.7 25.6908 53.4876 25.5291 53.2325 25.4639C53.4876 25.5291 52.9774 25.3987 53.2325 25.4639C53.4876 25.5291 52.6373 25.3119 53.2325 25.4639ZM49.1881 35.1427H47.6041V30.4067H49.1881V35.1427ZM56.2435 30.3125C56.3949 30.3125 56.5181 30.4357 56.5181 30.5871C56.5181 30.6763 56.5171 30.9184 56.5159 31.2466C56.5089 33.0588 56.5043 34.7752 56.5177 35.0605C56.5226 35.1635 56.4725 35.2321 56.4422 35.2639C56.3898 35.3187 56.3193 35.3489 56.2435 35.3489H51.7871C51.2559 35.3489 50.736 35.1648 50.3231 34.8306L50.1258 34.6708V31.0121L52.0442 28.8412C52.6401 28.1659 52.9683 27.298 52.9683 26.3973C52.9683 26.3708 53.0045 26.3639 53.0165 26.3845C53.4317 27.1111 53.4852 28.005 53.1597 28.7759L52.7897 29.6522C52.7286 29.7968 52.744 29.9623 52.8305 30.0932C52.917 30.2241 53.0633 30.303 53.2201 30.3035L56.2435 30.3125Z" fill="#08090D"/>
<path d="M34.9971 38.2833C34.7382 38.2833 34.5283 38.4932 34.5283 38.7521C34.5283 39.011 34.7382 39.2209 34.9971 39.2209H36.3791L36.1209 40.7823C36.0787 41.0377 36.2516 41.2791 36.507 41.3213C36.5329 41.3256 36.5586 41.3277 36.584 41.3277C36.8093 41.3277 37.008 41.1649 37.046 40.9353L37.3294 39.221H38.4604L38.2022 40.7824C38.16 41.0378 38.3329 41.2791 38.5883 41.3214C38.6142 41.3257 38.6399 41.3278 38.6653 41.3278C38.8906 41.3278 39.0893 41.1649 39.1273 40.9353L39.4107 39.221H41.2918C41.5508 39.221 41.7606 39.0111 41.7606 38.7522C41.7606 38.4933 41.5508 38.2834 41.2918 38.2834H39.5657L39.7548 37.1397H41.2918C41.5508 37.1397 41.7606 36.9298 41.7606 36.6709C41.7606 36.412 41.5508 36.2021 41.2918 36.2021H39.9098L40.168 34.6407C40.2103 34.3853 40.0374 34.1439 39.782 34.1017C39.5262 34.0593 39.2852 34.2323 39.2429 34.4877L38.9595 36.202H37.8285L38.0867 34.6406C38.129 34.3852 37.9561 34.1439 37.7007 34.1016C37.4446 34.0592 37.204 34.2322 37.1616 34.4877L36.8782 36.202H34.9971C34.7382 36.202 34.5283 36.4119 34.5283 36.6708C34.5283 36.9297 34.7382 37.1396 34.9971 37.1396H36.7232L36.5341 38.2833H34.9971ZM37.6736 37.1396H38.8046L38.6155 38.2833H37.4845L37.6736 37.1396Z" fill="#08090D"/>
<path d="M46.4327 45.3905C46.0542 45.0788 45.5505 44.9559 45.0453 45.0787C44.3979 45.2359 43.7446 45.8411 43.7446 46.8387C43.7446 47.4596 43.9712 47.9986 44.4374 48.4864C44.8181 48.8849 45.3676 49.2638 46.2188 49.7151C46.2875 49.7516 46.363 49.7698 46.4384 49.7698C46.5138 49.7698 46.5893 49.7516 46.658 49.7151C48.1431 48.9278 49.1321 48.1374 49.1321 46.8387C49.1321 45.8357 48.4556 45.2367 47.7852 45.088C47.2815 44.9762 46.7931 45.0948 46.4327 45.3905ZM48.1944 46.8387C48.1944 47.5392 47.7298 48.0572 46.4383 48.7681C45.1469 48.0571 44.6822 47.5391 44.6822 46.8387C44.6822 46.3175 44.984 46.0585 45.2665 45.9898C45.3185 45.9772 45.3743 45.9701 45.4316 45.9701C45.6441 45.9701 45.8777 46.0682 46.0217 46.3475C46.1038 46.5064 46.2697 46.6049 46.4477 46.6012C46.6264 46.5976 46.7876 46.4927 46.8632 46.3307C47.0149 46.0055 47.3339 45.9483 47.5819 46.0034C47.8781 46.069 48.1944 46.323 48.1944 46.8387Z" fill="#08090D"/>
</g>
<defs>
<filter id="filter0_d_0_1" x="0" y="0" width="92" height="92" filterUnits="userSpaceOnUse" color-interpolation-filters="sRGB">
<feFlood flood-opacity="0" result="BackgroundImageFix"/>
<feColorMatrix in="SourceAlpha" type="matrix" values="0 0 0 0 0 0 0 0 0 0 0 0 0 0 0 0 0 0 127 0" result="hardAlpha"/>
<feOffset dy="8"/>
<feGaussianBlur stdDeviation="8"/>
<feColorMatrix type="matrix" values="0 0 0 0 0 0 0 0 0 0 0 0 0 0 0 0 0 0 0.04 0"/>
<feBlend mode="normal" in2="BackgroundImageFix" result="effect1_dropShadow_0_1"/>
<feBlend mode="normal" in="SourceGraphic" in2="effect1_dropShadow_0_1" result="shape"/>
</filter>
<clipPath id="clip0_0_1">
<rect width="32" height="32" fill="white" transform="translate(30 22)"/>
</clipPath>
</defs>
</svg>
