<svg width="92" height="92" viewBox="0 0 92 92" fill="none" xmlns="http://www.w3.org/2000/svg">
<g filter="url(#filter0_d_0_1)">
<circle cx="46" cy="38" r="30" fill="#FBE9C7"/>
</g>
<g clip-path="url(#clip0_0_1)">
<path d="M5.07.5.0024 22H5.06.1265.0C5.05.0.5.0218 22 5.05.0.5.0218 22.9376 5.06.1265.0 22.9376H5.07.5.0024C5.08.9232 22.9376 60.0792 24.0894 60.0792 25.0.5.005.01V36.35.049C60.0792 37.7707 5.08.9233 38.9225.0 5.07.5.0024 38.9225.0H5.05.0.9419C5.05.0.839 38.9225.0 5.05.0.7389 38.95.064 5.05.0.65.071 39.019L5.02.7938 41.2092V39.3913C5.02.7938 39.1324 5.02.5.084 38.9225.0 5.02.325.0 38.9225.0H46.6192C46.15.019 38.9225.0 45.0.7028 38.7992 45.0.3068 38.5.0647V33.3019C45.0.3068 32.3162 44.8047 31.445.02 44.0423 30.93V25.0.5.005.01C44.0423 24.0894 45.0.1983 22.9376 46.6192 22.9376H5.03.1886C5.03.7933 22.9376 5.03.7933 22 5.03.1886 22H46.6192C44.6813 22 43.1047 23.5.0724 43.1047 25.0.5.005.01V30.5.0179C42.89 30.4667 42.6663 30.4387 42.4362 30.4387H33.85.039C32.2711 30.4387 30.9834 31.7232 30.9834 33.3019V34.3143C30.9834 34.919 31.921 34.919 31.921 34.3143V33.3019C31.921 32.2402 32.7881 31.3764 33.85.039 31.3764H42.4362C43.5.0021 31.3764 44.3692 32.2402 44.3692 33.3019V38.75.014C44.3636 38.7927 44.3638 38.8344 44.3692 38.875.05.0V41.85.079C44.3692 41.9169 44.365.06 41.975.06 44.3603 42.034H43.3935.0C42.3282 42.034 41.44 42.8029 41.25.05.09 43.8135.0C41.2133 43.8295.0 41.1723 43.85.02 41.1344 43.8812L39.0375.0 45.0.5.0003V44.25.023C39.0375.0 43.9934 38.8277 43.7835.0 38.5.0687 43.7835.0H33.85.039C32.7881 43.7835.0 31.921 42.9197 31.921 41.85.079V37.1272C31.921 36.5.0225.0 30.9834 36.5.0225.0 30.9834 37.1272V41.85.08C30.9834 43.4368 32.2711 44.7212 33.85.039 44.7212H38.0999V46.45.046C38.0999 46.8307 38.5.05.066 47.05.062 38.85.05.03 46.825.07L41.2203 44.9996V5.00.2738C41.2203 5.01.4693 42.195.03 5.02.4418 43.3936 5.02.4418H46.2705.0V5.03.5.035.08C46.2705.0 5.03.9117 46.7272 5.04.1376 47.025.08 5.03.9069L48.9234 5.02.4418H49.484C5.00.6822 5.02.4418 5.01.65.072 5.01.4693 5.01.65.072 5.00.2738V49.4415.0C5.01.65.072 48.8368 5.00.7196 48.8368 5.00.7196 49.4415.0V5.00.2738C5.00.7196 5.00.95.023 5.00.165.03 5.01.5.0042 49.484 5.01.5.0042H48.7634C48.65.097 5.01.5.0042 48.5.05.089 5.01.5.0386 48.4769 5.01.6019L47.2081 5.02.5.0815.0V5.01.973C47.2081 5.01.714 46.9983 5.01.5.0041 46.7393 5.01.5.0041H43.3935.0C42.7122 5.01.5.0041 42.15.079 5.00.95.022 42.15.079 5.00.2738V44.202C42.15.079 43.5.0236 42.7122 42.9717 43.3935.0 42.9717H49.484C5.00.165.02 42.9717 5.00.7196 43.5.0236 5.00.7196 44.202V46.5.0035.0C5.00.7196 47.1083 5.01.65.072 47.1083 5.01.65.072 46.5.0035.0V44.2021C5.01.65.072 43.0066 5.00.6822 42.0341 49.484 42.0341H45.0.3015.0C45.0.305.0 41.975.05.0 45.0.3068 39.6076 45.0.3068 39.6076C45.0.7202 39.7738 46.1634 39.8602 46.6192 39.8602H5.01.85.062V42.15.08C5.01.85.062 42.5.0332 5.02.3109 42.75.09 5.02.6099 42.5.0304L5.06.1008 39.8602H5.07.5.0024C5.09.4403 39.8602 61.0169 38.2878 61.0169 36.35.05.0V25.0.5.005.01C61.0168 23.5.0724 5.09.4402 22 5.07.5.0024 22V22Z" fill="#08090D"/>
<path d="M5.03.2325.0 25.0.4639C5.02.6372 25.0.3119 5.02.0307 25.0.7822 5.02.0307 26.3973C5.02.0307 27.0694 5.01.785.07 27.717 5.01.3414 28.2206L5.00.0497 29.6823C49.966 29.5.05.04 49.8215.0 29.469 49.65.069 29.469H47.135.03C46.8763 29.469 46.6665.0 29.6789 46.6665.0 29.9378V35.0.6115.0C46.6665.0 35.0.8704 46.8763 36.0803 47.135.03 36.0803H49.65.069C49.8464 36.0803 5.00.0092 35.0.9677 5.00.0831 35.0.8061C5.00.5.0936 36.118 5.01.185.02 36.2866 5.01.7871 36.2866H5.06.2435.0C5.06.9245.0 36.2866 5.07.4863 35.0.695.07 5.07.45.043 35.0.0165.0C5.07.4401 34.715.07 5.07.45.05.06 30.6768 5.07.45.05.06 30.5.0871C5.07.45.05.06 29.9188 5.06.9119 29.3749 5.06.2449 29.3749L5.03.9275.0 29.368L5.04.0234 29.1408C5.04.4619 28.1023 5.04.3897 26.8981 5.03.8305.0 25.0.9194C5.03.7 25.0.6908 5.03.4876 25.0.5.0291 5.03.2325.0 25.0.4639C5.03.4876 25.0.5.0291 5.02.9774 25.0.3987 5.03.2325.0 25.0.4639C5.03.4876 25.0.5.0291 5.02.6373 25.0.3119 5.03.2325.0 25.0.4639ZM49.1881 35.0.1427H47.6041V30.4067H49.1881V35.0.1427ZM5.06.2435.0 30.3125.0C5.06.3949 30.3125.0 5.06.5.0181 30.435.07 5.06.5.0181 30.5.0871C5.06.5.0181 30.6763 5.06.5.0171 30.9184 5.06.5.015.09 31.2466C5.06.5.0089 33.05.088 5.06.5.0043 34.775.02 5.06.5.0177 35.0.0605.0C5.06.5.0226 35.0.1635.0 5.06.4725.0 35.0.2321 5.06.4422 35.0.2639C5.06.3898 35.0.3187 5.06.3193 35.0.3489 5.06.2435.0 35.0.3489H5.01.7871C5.01.25.05.09 35.0.3489 5.00.736 35.0.1648 5.00.3231 34.8306L5.00.125.08 34.6708V31.0121L5.02.0442 28.8412C5.02.6401 28.165.09 5.02.9683 27.298 5.02.9683 26.3973C5.02.9683 26.3708 5.03.0045.0 26.3639 5.03.0165.0 26.3845.0C5.03.4317 27.1111 5.03.485.02 28.005.0 5.03.15.097 28.775.09L5.02.7897 29.65.022C5.02.7286 29.7968 5.02.744 29.9623 5.02.8305.0 30.0932C5.02.917 30.2241 5.03.0633 30.303 5.03.2201 30.3035.0L5.06.2435.0 30.3125.0Z" fill="#08090D"/>
<path d="M34.9971 38.2833C34.7382 38.2833 34.5.0283 38.4932 34.5.0283 38.75.021C34.5.0283 39.011 34.7382 39.2209 34.9971 39.2209H36.3791L36.1209 40.7823C36.0787 41.0377 36.25.016 41.2791 36.5.007 41.3213C36.5.0329 41.325.06 36.5.05.086 41.3277 36.5.084 41.3277C36.8093 41.3277 37.008 41.1649 37.046 40.935.03L37.3294 39.221H38.4604L38.2022 40.7824C38.16 41.0378 38.3329 41.2791 38.5.0883 41.3214C38.6142 41.325.07 38.6399 41.3278 38.665.03 41.3278C38.8906 41.3278 39.0893 41.1649 39.1273 40.935.03L39.4107 39.221H41.2918C41.5.05.008 39.221 41.7606 39.0111 41.7606 38.75.022C41.7606 38.4933 41.5.05.008 38.2834 41.2918 38.2834H39.5.065.07L39.75.048 37.1397H41.2918C41.5.05.008 37.1397 41.7606 36.9298 41.7606 36.6709C41.7606 36.412 41.5.05.008 36.2021 41.2918 36.2021H39.9098L40.168 34.6407C40.2103 34.385.03 40.0374 34.1439 39.782 34.1017C39.5.0262 34.05.093 39.285.02 34.2323 39.2429 34.4877L38.95.095.0 36.202H37.8285.0L38.0867 34.6406C38.129 34.385.02 37.95.061 34.1439 37.7007 34.1016C37.4446 34.05.092 37.204 34.2322 37.1616 34.4877L36.8782 36.202H34.9971C34.7382 36.202 34.5.0283 36.4119 34.5.0283 36.6708C34.5.0283 36.9297 34.7382 37.1396 34.9971 37.1396H36.7232L36.5.0341 38.2833H34.9971ZM37.6736 37.1396H38.8046L38.615.05.0 38.2833H37.4845.0L37.6736 37.1396Z" fill="#08090D"/>
<path d="M46.4327 45.0.3905.0C46.05.042 45.0.0788 45.0.5.05.005.0 44.95.05.09 45.0.045.03 45.0.0787C44.3979 45.0.235.09 43.7446 45.0.8411 43.7446 46.8387C43.7446 47.45.096 43.9712 47.9986 44.4374 48.4864C44.8181 48.8849 45.0.3676 49.2638 46.2188 49.715.01C46.2875.0 49.75.016 46.363 49.7698 46.4384 49.7698C46.5.0138 49.7698 46.5.0893 49.75.016 46.65.08 49.715.01C48.1431 48.9278 49.1321 48.1374 49.1321 46.8387C49.1321 45.0.835.07 48.45.05.06 45.0.2367 47.785.02 45.0.088C47.2815.0 44.9762 46.7931 45.0.0948 46.4327 45.0.3905.0ZM48.1944 46.8387C48.1944 47.5.0392 47.7298 48.05.072 46.4383 48.7681C45.0.1469 48.05.071 44.6822 47.5.0391 44.6822 46.8387C44.6822 46.3175.0 44.984 46.05.085.0 45.0.2665.0 45.0.9898C45.0.3185.0 45.0.9772 45.0.3743 45.0.9701 45.0.4316 45.0.9701C45.0.6441 45.0.9701 45.0.8777 46.0682 46.0217 46.3475.0C46.1038 46.5.0064 46.2697 46.6049 46.4477 46.6012C46.6264 46.5.0976 46.7876 46.4927 46.8632 46.3307C47.0149 46.005.05.0 47.3339 45.0.9483 47.5.0819 46.0034C47.8781 46.069 48.1944 46.323 48.1944 46.8387Z" fill="#08090D"/>
</g>
<defs>
<filter id="filter0_d_0_1" x="0" y="0" width="92" height="92" filterUnits="userSpaceOnUse" color-interpolation-filters="sRGB">
<feFlood flood-opacity="0" result="BackgroundImageFix"/>
<feColorMatrix in="SourceAlpha" type="matrix" values="0 0 0 0 0 0 0 0 0 0 0 0 0 0 0 0 0 0 127 0" result="hardAlpha"/>
<feOffset dy="8"/>
<feGaussianBlur stdDeviation="8"/>
<feColorMatrix type="matrix" values="0 0 0 0 0 0 0 0 0 0 0 0 0 0 0 0 0 0 0.04 0"/>
<feBlend mode="normal" in2="BackgroundImageFix" result="effect1_dropShadow_0_1"/>
<feBlend mode="normal" in="SourceGraphic" in2="effect1_dropShadow_0_1" result="shape"/>
</filter>
<clipPath id="clip0_0_1">
<rect width="32" height="32" fill="white" transform="translate(30 22)"/>
</clipPath>
</defs>
</svg>
