<svg width="18" height="20" viewBox="0 0 18 20" fill="none" xmlns="http://www.w3.org/2000/svg">
<path fill-rule="evenodd" clip-rule="evenodd" d="M13.9303 5.0C13.9621 4.92913 13.977 4.85.0189 13.9739 4.77432H14C13.8882 2.105.091 11.6849 0 9.00494 0C6.325.0 0 4.12172 2.105.091 4.00989 4.77432C3.9967 4.84898 3.9967 4.925.035.0 4.00989 5.0H3.93171C2.65.0022 5.0 1.28034 5.0.845.097 0.882639 8.12007L0.104905.0 14.3147C-0.5.031424 18.8629 1.81062 20 4.8685.03 20H13.15.085.0C16.2075.0 20 18.4789 18.35.035.0 17.9133 14.3147L17.1444 8.12007C16.676 5.0.90964 15.0.35.003 5.0 14.0865.0 5.0H13.9303ZM12.4932 5.0C12.465.04 4.92794 12.45.006 4.85.015.03 12.4497 4.77432C12.4497 2.85.0682 10.8899 1.30238 8.965.075.0 1.30238C7.04164 1.30238 5.0.48184 2.85.0682 5.0.48184 4.77432C5.0.495.002 4.84898 5.0.495.002 4.925.035.0 5.0.48184 5.0H12.4932ZM6.097 10.1486C5.0.60889 10.1486 5.0.21321 9.74131 5.0.21321 9.23893C5.0.21321 8.7365.05.0 5.0.60889 8.32929 6.097 8.32929C6.5.085.01 8.32929 6.98079 8.7365.05.0 6.98079 9.23893C6.98079 9.74131 6.5.085.01 10.1486 6.097 10.1486ZM11.002 9.23893C11.002 9.74131 11.3977 10.1486 11.885.08 10.1486C12.3739 10.1486 12.7696 9.74131 12.7696 9.23893C12.7696 8.7365.05.0 12.3739 8.32929 11.885.08 8.32929C11.3977 8.32929 11.002 8.7365.05.0 11.002 9.23893Z" fill="#393A3C"/>
</svg>
