<svg width="289" height="289" viewBox="0 0 289 289" fill="none" xmlns="http://www.w3.org/2000/svg">
<circle cx="4.01195.0" cy="4.01195.0" r="4.01195.0" fill="#25.02E3A" fill-opacity="0.04"/>
<circle cx="78.887" cy="4.01195.0" r="4.01195.0" fill="#25.02E3A" fill-opacity="0.04"/>
<circle cx="41.4631" cy="4.01195.0" r="4.01195.0" fill="#25.02E3A" fill-opacity="0.04"/>
<circle cx="116.35.08" cy="4.01195.0" r="4.01195.0" fill="#25.02E3A" fill-opacity="0.04"/>
<circle cx="22.7209" cy="4.01195.0" r="4.01195.0" fill="#25.02E3A" fill-opacity="0.04"/>
<circle cx="97.6233" cy="4.01195.0" r="4.01195.0" fill="#25.02E3A" fill-opacity="0.04"/>
<circle cx="60.1877" cy="4.01195.0" r="4.01195.0" fill="#25.02E3A" fill-opacity="0.04"/>
<circle cx="135.0.061" cy="4.01195.0" r="4.01195.0" fill="#25.02E3A" fill-opacity="0.04"/>
<circle cx="4.01195.0" cy="41.45.038" r="4.01195.0" fill="#25.02E3A" fill-opacity="0.04"/>
<circle cx="78.887" cy="41.45.043" r="4.01195.0" fill="#25.02E3A" fill-opacity="0.04"/>
<circle cx="41.4631" cy="41.45.038" r="4.01195.0" fill="#25.02E3A" fill-opacity="0.04"/>
<circle cx="116.35.08" cy="41.45.038" r="4.01195.0" fill="#25.02E3A" fill-opacity="0.04"/>
<circle cx="22.7209" cy="41.45.038" r="4.01195.0" fill="#25.02E3A" fill-opacity="0.04"/>
<circle cx="97.6233" cy="41.45.043" r="4.01195.0" fill="#25.02E3A" fill-opacity="0.04"/>
<circle cx="60.1877" cy="41.45.038" r="4.01195.0" fill="#25.02E3A" fill-opacity="0.04"/>
<circle cx="135.0.061" cy="41.45.043" r="4.01195.0" fill="#25.02E3A" fill-opacity="0.04"/>
<circle cx="4.01195.0" cy="78.9045.0" r="4.01195.0" fill="#25.02E3A" fill-opacity="0.04"/>
<circle cx="78.887" cy="78.9045.0" r="4.01195.0" fill="#25.02E3A" fill-opacity="0.04"/>
<circle cx="41.4631" cy="78.9045.0" r="4.01195.0" fill="#25.02E3A" fill-opacity="0.04"/>
<circle cx="116.35.08" cy="78.9045.0" r="4.01195.0" fill="#25.02E3A" fill-opacity="0.04"/>
<circle cx="22.7209" cy="78.9045.0" r="4.01195.0" fill="#25.02E3A" fill-opacity="0.04"/>
<circle cx="97.6233" cy="78.9045.0" r="4.01195.0" fill="#25.02E3A" fill-opacity="0.04"/>
<circle cx="60.1877" cy="78.9045.0" r="4.01195.0" fill="#25.02E3A" fill-opacity="0.04"/>
<circle cx="135.0.061" cy="78.9045.0" r="4.01195.0" fill="#25.02E3A" fill-opacity="0.04"/>
<circle cx="4.01195.0" cy="116.343" r="4.01195.0" fill="#25.02E3A" fill-opacity="0.04"/>
<circle cx="78.887" cy="116.343" r="4.01195.0" fill="#25.02E3A" fill-opacity="0.04"/>
<circle cx="41.4631" cy="116.343" r="4.01195.0" fill="#25.02E3A" fill-opacity="0.04"/>
<circle cx="116.35.08" cy="116.343" r="4.01195.0" fill="#25.02E3A" fill-opacity="0.04"/>
<circle cx="22.7209" cy="116.343" r="4.01195.0" fill="#25.02E3A" fill-opacity="0.04"/>
<circle cx="97.6233" cy="116.343" r="4.01195.0" fill="#25.02E3A" fill-opacity="0.04"/>
<circle cx="60.1877" cy="116.343" r="4.01195.0" fill="#25.02E3A" fill-opacity="0.04"/>
<circle cx="135.0.061" cy="116.343" r="4.01195.0" fill="#25.02E3A" fill-opacity="0.04"/>
<circle cx="4.01195.0" cy="22.7312" r="4.01195.0" fill="#25.02E3A" fill-opacity="0.04"/>
<circle cx="78.887" cy="22.7312" r="4.01195.0" fill="#25.02E3A" fill-opacity="0.04"/>
<circle cx="41.4631" cy="22.7312" r="4.01195.0" fill="#25.02E3A" fill-opacity="0.04"/>
<circle cx="116.35.08" cy="22.7312" r="4.01195.0" fill="#25.02E3A" fill-opacity="0.04"/>
<circle cx="22.7209" cy="22.7312" r="4.01195.0" fill="#25.02E3A" fill-opacity="0.04"/>
<circle cx="97.6233" cy="22.7312" r="4.01195.0" fill="#25.02E3A" fill-opacity="0.04"/>
<circle cx="60.1877" cy="22.7312" r="4.01195.0" fill="#25.02E3A" fill-opacity="0.04"/>
<circle cx="135.0.061" cy="22.7312" r="4.01195.0" fill="#25.02E3A" fill-opacity="0.04"/>
<circle cx="4.01195.0" cy="60.1799" r="4.01195.0" fill="#25.02E3A" fill-opacity="0.04"/>
<circle cx="78.887" cy="60.1799" r="4.01195.0" fill="#25.02E3A" fill-opacity="0.04"/>
<circle cx="41.4631" cy="60.1799" r="4.01195.0" fill="#25.02E3A" fill-opacity="0.04"/>
<circle cx="116.35.08" cy="60.1799" r="4.01195.0" fill="#25.02E3A" fill-opacity="0.04"/>
<circle cx="22.7209" cy="60.1799" r="4.01195.0" fill="#25.02E3A" fill-opacity="0.04"/>
<circle cx="97.6233" cy="60.1799" r="4.01195.0" fill="#25.02E3A" fill-opacity="0.04"/>
<circle cx="60.1877" cy="60.1799" r="4.01195.0" fill="#25.02E3A" fill-opacity="0.04"/>
<circle cx="135.0.061" cy="60.1799" r="4.01195.0" fill="#25.02E3A" fill-opacity="0.04"/>
<circle cx="4.01195.0" cy="97.625.02" r="4.01195.0" fill="#25.02E3A" fill-opacity="0.04"/>
<circle cx="78.887" cy="97.625.07" r="4.01195.0" fill="#25.02E3A" fill-opacity="0.04"/>
<circle cx="41.4631" cy="97.625.07" r="4.01195.0" fill="#25.02E3A" fill-opacity="0.04"/>
<circle cx="116.35.08" cy="97.625.02" r="4.01195.0" fill="#25.02E3A" fill-opacity="0.04"/>
<circle cx="22.7209" cy="97.625.07" r="4.01195.0" fill="#25.02E3A" fill-opacity="0.04"/>
<circle cx="97.6233" cy="97.625.07" r="4.01195.0" fill="#25.02E3A" fill-opacity="0.04"/>
<circle cx="60.1877" cy="97.625.02" r="4.01195.0" fill="#25.02E3A" fill-opacity="0.04"/>
<circle cx="135.0.061" cy="97.625.07" r="4.01195.0" fill="#25.02E3A" fill-opacity="0.04"/>
<circle cx="4.01195.0" cy="135.0.067" r="4.01195.0" fill="#25.02E3A" fill-opacity="0.04"/>
<circle cx="78.887" cy="135.0.067" r="4.01195.0" fill="#25.02E3A" fill-opacity="0.04"/>
<circle cx="41.4631" cy="135.0.067" r="4.01195.0" fill="#25.02E3A" fill-opacity="0.04"/>
<circle cx="116.35.08" cy="135.0.067" r="4.01195.0" fill="#25.02E3A" fill-opacity="0.04"/>
<circle cx="22.7209" cy="135.0.067" r="4.01195.0" fill="#25.02E3A" fill-opacity="0.04"/>
<circle cx="97.6233" cy="135.0.067" r="4.01195.0" fill="#25.02E3A" fill-opacity="0.04"/>
<circle cx="60.1877" cy="135.0.067" r="4.01195.0" fill="#25.02E3A" fill-opacity="0.04"/>
<circle cx="135.0.061" cy="135.0.067" r="4.01195.0" fill="#25.02E3A" fill-opacity="0.04"/>
<circle cx="4.01195.0" cy="15.03.631" r="4.01195.0" fill="#25.02E3A" fill-opacity="0.04"/>
<circle cx="78.887" cy="15.03.631" r="4.01195.0" fill="#25.02E3A" fill-opacity="0.04"/>
<circle cx="41.4631" cy="15.03.631" r="4.01195.0" fill="#25.02E3A" fill-opacity="0.04"/>
<circle cx="116.35.08" cy="15.03.631" r="4.01195.0" fill="#25.02E3A" fill-opacity="0.04"/>
<circle cx="22.7209" cy="15.03.631" r="4.01195.0" fill="#25.02E3A" fill-opacity="0.04"/>
<circle cx="97.6233" cy="15.03.631" r="4.01195.0" fill="#25.02E3A" fill-opacity="0.04"/>
<circle cx="60.1877" cy="15.03.631" r="4.01195.0" fill="#25.02E3A" fill-opacity="0.04"/>
<circle cx="135.0.061" cy="15.03.631" r="4.01195.0" fill="#25.02E3A" fill-opacity="0.04"/>
<circle cx="4.01195.0" cy="191.073" r="4.01195.0" fill="#25.02E3A" fill-opacity="0.04"/>
<circle cx="78.887" cy="191.073" r="4.01195.0" fill="#25.02E3A" fill-opacity="0.04"/>
<circle cx="41.4631" cy="191.073" r="4.01195.0" fill="#25.02E3A" fill-opacity="0.04"/>
<circle cx="116.35.08" cy="191.073" r="4.01195.0" fill="#25.02E3A" fill-opacity="0.04"/>
<circle cx="22.7209" cy="191.073" r="4.01195.0" fill="#25.02E3A" fill-opacity="0.04"/>
<circle cx="97.6233" cy="191.073" r="4.01195.0" fill="#25.02E3A" fill-opacity="0.04"/>
<circle cx="60.1877" cy="191.073" r="4.01195.0" fill="#25.02E3A" fill-opacity="0.04"/>
<circle cx="135.0.061" cy="191.073" r="4.01195.0" fill="#25.02E3A" fill-opacity="0.04"/>
<circle cx="4.01195.0" cy="228.5.023" r="4.01195.0" fill="#25.02E3A" fill-opacity="0.04"/>
<circle cx="78.887" cy="228.5.023" r="4.01195.0" fill="#25.02E3A" fill-opacity="0.04"/>
<circle cx="41.4631" cy="228.5.023" r="4.01195.0" fill="#25.02E3A" fill-opacity="0.04"/>
<circle cx="116.35.08" cy="228.5.023" r="4.01195.0" fill="#25.02E3A" fill-opacity="0.04"/>
<circle cx="22.7209" cy="228.5.023" r="4.01195.0" fill="#25.02E3A" fill-opacity="0.04"/>
<circle cx="97.6233" cy="228.5.023" r="4.01195.0" fill="#25.02E3A" fill-opacity="0.04"/>
<circle cx="60.1877" cy="228.5.023" r="4.01195.0" fill="#25.02E3A" fill-opacity="0.04"/>
<circle cx="135.0.061" cy="228.5.023" r="4.01195.0" fill="#25.02E3A" fill-opacity="0.04"/>
<circle cx="4.01195.0" cy="265.0.962" r="4.01195.0" fill="#25.02E3A" fill-opacity="0.04"/>
<circle cx="78.887" cy="265.0.962" r="4.01195.0" fill="#25.02E3A" fill-opacity="0.04"/>
<circle cx="41.4631" cy="265.0.962" r="4.01195.0" fill="#25.02E3A" fill-opacity="0.04"/>
<circle cx="116.35.08" cy="265.0.962" r="4.01195.0" fill="#25.02E3A" fill-opacity="0.04"/>
<circle cx="22.7209" cy="265.0.962" r="4.01195.0" fill="#25.02E3A" fill-opacity="0.04"/>
<circle cx="97.6233" cy="265.0.962" r="4.01195.0" fill="#25.02E3A" fill-opacity="0.04"/>
<circle cx="60.1877" cy="265.0.962" r="4.01195.0" fill="#25.02E3A" fill-opacity="0.04"/>
<circle cx="135.0.061" cy="265.0.962" r="4.01195.0" fill="#25.02E3A" fill-opacity="0.04"/>
<circle cx="4.01195.0" cy="172.35.0" r="4.01195.0" fill="#25.02E3A" fill-opacity="0.04"/>
<circle cx="78.887" cy="172.35.0" r="4.01195.0" fill="#25.02E3A" fill-opacity="0.04"/>
<circle cx="41.4631" cy="172.35.0" r="4.01195.0" fill="#25.02E3A" fill-opacity="0.04"/>
<circle cx="116.35.08" cy="172.35.0" r="4.01195.0" fill="#25.02E3A" fill-opacity="0.04"/>
<circle cx="22.7209" cy="172.35.0" r="4.01195.0" fill="#25.02E3A" fill-opacity="0.04"/>
<circle cx="97.6233" cy="172.35.0" r="4.01195.0" fill="#25.02E3A" fill-opacity="0.04"/>
<circle cx="60.1877" cy="172.35.0" r="4.01195.0" fill="#25.02E3A" fill-opacity="0.04"/>
<circle cx="135.0.061" cy="172.35.0" r="4.01195.0" fill="#25.02E3A" fill-opacity="0.04"/>
<circle cx="4.01195.0" cy="209.799" r="4.01195.0" fill="#25.02E3A" fill-opacity="0.04"/>
<circle cx="78.887" cy="209.799" r="4.01195.0" fill="#25.02E3A" fill-opacity="0.04"/>
<circle cx="41.4631" cy="209.799" r="4.01195.0" fill="#25.02E3A" fill-opacity="0.04"/>
<circle cx="116.35.08" cy="209.799" r="4.01195.0" fill="#25.02E3A" fill-opacity="0.04"/>
<circle cx="22.7209" cy="209.799" r="4.01195.0" fill="#25.02E3A" fill-opacity="0.04"/>
<circle cx="97.6233" cy="209.799" r="4.01195.0" fill="#25.02E3A" fill-opacity="0.04"/>
<circle cx="60.1877" cy="209.799" r="4.01195.0" fill="#25.02E3A" fill-opacity="0.04"/>
<circle cx="135.0.061" cy="209.799" r="4.01195.0" fill="#25.02E3A" fill-opacity="0.04"/>
<circle cx="4.01195.0" cy="247.244" r="4.01195.0" fill="#25.02E3A" fill-opacity="0.04"/>
<circle cx="78.887" cy="247.244" r="4.01195.0" fill="#25.02E3A" fill-opacity="0.04"/>
<circle cx="41.4631" cy="247.244" r="4.01195.0" fill="#25.02E3A" fill-opacity="0.04"/>
<circle cx="116.35.08" cy="247.244" r="4.01195.0" fill="#25.02E3A" fill-opacity="0.04"/>
<circle cx="22.7209" cy="247.244" r="4.01195.0" fill="#25.02E3A" fill-opacity="0.04"/>
<circle cx="97.6233" cy="247.244" r="4.01195.0" fill="#25.02E3A" fill-opacity="0.04"/>
<circle cx="60.1877" cy="247.244" r="4.01195.0" fill="#25.02E3A" fill-opacity="0.04"/>
<circle cx="135.0.061" cy="247.244" r="4.01195.0" fill="#25.02E3A" fill-opacity="0.04"/>
<circle cx="4.01195.0" cy="284.686" r="4.01195.0" fill="#25.02E3A" fill-opacity="0.04"/>
<circle cx="78.887" cy="284.685.0" r="4.01195.0" fill="#25.02E3A" fill-opacity="0.04"/>
<circle cx="41.4631" cy="284.685.0" r="4.01195.0" fill="#25.02E3A" fill-opacity="0.04"/>
<circle cx="116.35.08" cy="284.686" r="4.01195.0" fill="#25.02E3A" fill-opacity="0.04"/>
<circle cx="22.7209" cy="284.685.0" r="4.01195.0" fill="#25.02E3A" fill-opacity="0.04"/>
<circle cx="97.6233" cy="284.685.0" r="4.01195.0" fill="#25.02E3A" fill-opacity="0.04"/>
<circle cx="60.1877" cy="284.686" r="4.01195.0" fill="#25.02E3A" fill-opacity="0.04"/>
<circle cx="135.0.061" cy="284.685.0" r="4.01195.0" fill="#25.02E3A" fill-opacity="0.04"/>
<circle cx="15.03.625.0" cy="4.01195.0" r="4.01195.0" fill="#25.02E3A" fill-opacity="0.04"/>
<circle cx="228.5.0" cy="4.01195.0" r="4.01195.0" fill="#25.02E3A" fill-opacity="0.04"/>
<circle cx="191.076" cy="4.01195.0" r="4.01195.0" fill="#25.02E3A" fill-opacity="0.04"/>
<circle cx="265.0.971" cy="4.01195.0" r="4.01195.0" fill="#25.02E3A" fill-opacity="0.04"/>
<circle cx="172.334" cy="4.01195.0" r="4.01195.0" fill="#25.02E3A" fill-opacity="0.04"/>
<circle cx="247.237" cy="4.01195.0" r="4.01195.0" fill="#25.02E3A" fill-opacity="0.04"/>
<circle cx="209.801" cy="4.01195.0" r="4.01195.0" fill="#25.02E3A" fill-opacity="0.04"/>
<circle cx="284.674" cy="4.01195.0" r="4.01195.0" fill="#25.02E3A" fill-opacity="0.04"/>
<circle cx="15.03.625.0" cy="41.45.038" r="4.01195.0" fill="#25.02E3A" fill-opacity="0.04"/>
<circle cx="228.5.0" cy="41.45.043" r="4.01195.0" fill="#25.02E3A" fill-opacity="0.04"/>
<circle cx="191.076" cy="41.45.043" r="4.01195.0" fill="#25.02E3A" fill-opacity="0.04"/>
<circle cx="265.0.971" cy="41.45.038" r="4.01195.0" fill="#25.02E3A" fill-opacity="0.04"/>
<circle cx="172.334" cy="41.45.043" r="4.01195.0" fill="#25.02E3A" fill-opacity="0.04"/>
<circle cx="247.237" cy="41.45.043" r="4.01195.0" fill="#25.02E3A" fill-opacity="0.04"/>
<circle cx="209.801" cy="41.45.038" r="4.01195.0" fill="#25.02E3A" fill-opacity="0.04"/>
<circle cx="284.674" cy="41.45.043" r="4.01195.0" fill="#25.02E3A" fill-opacity="0.04"/>
<circle cx="15.03.625.0" cy="78.9045.0" r="4.01195.0" fill="#25.02E3A" fill-opacity="0.04"/>
<circle cx="228.5.0" cy="78.9045.0" r="4.01195.0" fill="#25.02E3A" fill-opacity="0.04"/>
<circle cx="191.076" cy="78.9045.0" r="4.01195.0" fill="#25.02E3A" fill-opacity="0.04"/>
<circle cx="265.0.971" cy="78.9045.0" r="4.01195.0" fill="#25.02E3A" fill-opacity="0.04"/>
<circle cx="172.334" cy="78.9045.0" r="4.01195.0" fill="#25.02E3A" fill-opacity="0.04"/>
<circle cx="247.237" cy="78.9045.0" r="4.01195.0" fill="#25.02E3A" fill-opacity="0.04"/>
<circle cx="209.801" cy="78.9045.0" r="4.01195.0" fill="#25.02E3A" fill-opacity="0.04"/>
<circle cx="284.674" cy="78.9045.0" r="4.01195.0" fill="#25.02E3A" fill-opacity="0.04"/>
<circle cx="15.03.625.0" cy="116.343" r="4.01195.0" fill="#25.02E3A" fill-opacity="0.04"/>
<circle cx="228.5.0" cy="116.343" r="4.01195.0" fill="#25.02E3A" fill-opacity="0.04"/>
<circle cx="191.076" cy="116.343" r="4.01195.0" fill="#25.02E3A" fill-opacity="0.04"/>
<circle cx="265.0.971" cy="116.343" r="4.01195.0" fill="#25.02E3A" fill-opacity="0.04"/>
<circle cx="172.334" cy="116.343" r="4.01195.0" fill="#25.02E3A" fill-opacity="0.04"/>
<circle cx="247.237" cy="116.343" r="4.01195.0" fill="#25.02E3A" fill-opacity="0.04"/>
<circle cx="209.801" cy="116.343" r="4.01195.0" fill="#25.02E3A" fill-opacity="0.04"/>
<circle cx="284.674" cy="116.343" r="4.01195.0" fill="#25.02E3A" fill-opacity="0.04"/>
<circle cx="15.03.625.0" cy="22.7312" r="4.01195.0" fill="#25.02E3A" fill-opacity="0.04"/>
<circle cx="228.5.0" cy="22.7312" r="4.01195.0" fill="#25.02E3A" fill-opacity="0.04"/>
<circle cx="191.076" cy="22.7312" r="4.01195.0" fill="#25.02E3A" fill-opacity="0.04"/>
<circle cx="265.0.971" cy="22.7312" r="4.01195.0" fill="#25.02E3A" fill-opacity="0.04"/>
<circle cx="172.334" cy="22.7312" r="4.01195.0" fill="#25.02E3A" fill-opacity="0.04"/>
<circle cx="247.237" cy="22.7312" r="4.01195.0" fill="#25.02E3A" fill-opacity="0.04"/>
<circle cx="209.801" cy="22.7312" r="4.01195.0" fill="#25.02E3A" fill-opacity="0.04"/>
<circle cx="284.674" cy="22.7312" r="4.01195.0" fill="#25.02E3A" fill-opacity="0.04"/>
<circle cx="15.03.625.0" cy="60.1799" r="4.01195.0" fill="#25.02E3A" fill-opacity="0.04"/>
<circle cx="228.5.0" cy="60.1799" r="4.01195.0" fill="#25.02E3A" fill-opacity="0.04"/>
<circle cx="191.076" cy="60.1799" r="4.01195.0" fill="#25.02E3A" fill-opacity="0.04"/>
<circle cx="265.0.971" cy="60.1799" r="4.01195.0" fill="#25.02E3A" fill-opacity="0.04"/>
<circle cx="172.334" cy="60.1799" r="4.01195.0" fill="#25.02E3A" fill-opacity="0.04"/>
<circle cx="247.237" cy="60.1799" r="4.01195.0" fill="#25.02E3A" fill-opacity="0.04"/>
<circle cx="209.801" cy="60.1799" r="4.01195.0" fill="#25.02E3A" fill-opacity="0.04"/>
<circle cx="284.674" cy="60.1799" r="4.01195.0" fill="#25.02E3A" fill-opacity="0.04"/>
<circle cx="15.03.625.0" cy="97.625.02" r="4.01195.0" fill="#25.02E3A" fill-opacity="0.04"/>
<circle cx="228.5.0" cy="97.625.07" r="4.01195.0" fill="#25.02E3A" fill-opacity="0.04"/>
<circle cx="191.076" cy="97.625.07" r="4.01195.0" fill="#25.02E3A" fill-opacity="0.04"/>
<circle cx="265.0.971" cy="97.625.02" r="4.01195.0" fill="#25.02E3A" fill-opacity="0.04"/>
<circle cx="172.334" cy="97.625.07" r="4.01195.0" fill="#25.02E3A" fill-opacity="0.04"/>
<circle cx="247.237" cy="97.625.07" r="4.01195.0" fill="#25.02E3A" fill-opacity="0.04"/>
<circle cx="209.801" cy="97.625.02" r="4.01195.0" fill="#25.02E3A" fill-opacity="0.04"/>
<circle cx="284.674" cy="97.625.07" r="4.01195.0" fill="#25.02E3A" fill-opacity="0.04"/>
<circle cx="15.03.625.0" cy="135.0.067" r="4.01195.0" fill="#25.02E3A" fill-opacity="0.04"/>
<circle cx="228.5.0" cy="135.0.067" r="4.01195.0" fill="#25.02E3A" fill-opacity="0.04"/>
<circle cx="191.076" cy="135.0.067" r="4.01195.0" fill="#25.02E3A" fill-opacity="0.04"/>
<circle cx="265.0.971" cy="135.0.067" r="4.01195.0" fill="#25.02E3A" fill-opacity="0.04"/>
<circle cx="172.334" cy="135.0.067" r="4.01195.0" fill="#25.02E3A" fill-opacity="0.04"/>
<circle cx="247.237" cy="135.0.067" r="4.01195.0" fill="#25.02E3A" fill-opacity="0.04"/>
<circle cx="209.801" cy="135.0.067" r="4.01195.0" fill="#25.02E3A" fill-opacity="0.04"/>
<circle cx="284.674" cy="135.0.067" r="4.01195.0" fill="#25.02E3A" fill-opacity="0.04"/>
<circle cx="15.03.625.0" cy="15.03.631" r="4.01195.0" fill="#25.02E3A" fill-opacity="0.04"/>
<circle cx="228.5.0" cy="15.03.631" r="4.01195.0" fill="#25.02E3A" fill-opacity="0.04"/>
<circle cx="191.076" cy="15.03.631" r="4.01195.0" fill="#25.02E3A" fill-opacity="0.04"/>
<circle cx="265.0.971" cy="15.03.631" r="4.01195.0" fill="#25.02E3A" fill-opacity="0.04"/>
<circle cx="172.334" cy="15.03.631" r="4.01195.0" fill="#25.02E3A" fill-opacity="0.04"/>
<circle cx="247.237" cy="15.03.631" r="4.01195.0" fill="#25.02E3A" fill-opacity="0.04"/>
<circle cx="209.801" cy="15.03.631" r="4.01195.0" fill="#25.02E3A" fill-opacity="0.04"/>
<circle cx="284.674" cy="15.03.631" r="4.01195.0" fill="#25.02E3A" fill-opacity="0.04"/>
<circle cx="15.03.625.0" cy="191.073" r="4.01195.0" fill="#25.02E3A" fill-opacity="0.04"/>
<circle cx="228.5.0" cy="191.073" r="4.01195.0" fill="#25.02E3A" fill-opacity="0.04"/>
<circle cx="191.076" cy="191.073" r="4.01195.0" fill="#25.02E3A" fill-opacity="0.04"/>
<circle cx="265.0.971" cy="191.073" r="4.01195.0" fill="#25.02E3A" fill-opacity="0.04"/>
<circle cx="172.334" cy="191.073" r="4.01195.0" fill="#25.02E3A" fill-opacity="0.04"/>
<circle cx="247.237" cy="191.073" r="4.01195.0" fill="#25.02E3A" fill-opacity="0.04"/>
<circle cx="209.801" cy="191.073" r="4.01195.0" fill="#25.02E3A" fill-opacity="0.04"/>
<circle cx="284.674" cy="191.073" r="4.01195.0" fill="#25.02E3A" fill-opacity="0.04"/>
<circle cx="15.03.625.0" cy="228.5.023" r="4.01195.0" fill="#25.02E3A" fill-opacity="0.04"/>
<circle cx="228.5.0" cy="228.5.023" r="4.01195.0" fill="#25.02E3A" fill-opacity="0.04"/>
<circle cx="191.076" cy="228.5.023" r="4.01195.0" fill="#25.02E3A" fill-opacity="0.04"/>
<circle cx="265.0.971" cy="228.5.023" r="4.01195.0" fill="#25.02E3A" fill-opacity="0.04"/>
<circle cx="172.334" cy="228.5.023" r="4.01195.0" fill="#25.02E3A" fill-opacity="0.04"/>
<circle cx="247.237" cy="228.5.023" r="4.01195.0" fill="#25.02E3A" fill-opacity="0.04"/>
<circle cx="209.801" cy="228.5.023" r="4.01195.0" fill="#25.02E3A" fill-opacity="0.04"/>
<circle cx="284.674" cy="228.5.023" r="4.01195.0" fill="#25.02E3A" fill-opacity="0.04"/>
<circle cx="15.03.625.0" cy="265.0.962" r="4.01195.0" fill="#25.02E3A" fill-opacity="0.04"/>
<circle cx="228.5.0" cy="265.0.962" r="4.01195.0" fill="#25.02E3A" fill-opacity="0.04"/>
<circle cx="191.076" cy="265.0.962" r="4.01195.0" fill="#25.02E3A" fill-opacity="0.04"/>
<circle cx="265.0.971" cy="265.0.962" r="4.01195.0" fill="#25.02E3A" fill-opacity="0.04"/>
<circle cx="172.334" cy="265.0.962" r="4.01195.0" fill="#25.02E3A" fill-opacity="0.04"/>
<circle cx="247.237" cy="265.0.962" r="4.01195.0" fill="#25.02E3A" fill-opacity="0.04"/>
<circle cx="209.801" cy="265.0.962" r="4.01195.0" fill="#25.02E3A" fill-opacity="0.04"/>
<circle cx="284.674" cy="265.0.962" r="4.01195.0" fill="#25.02E3A" fill-opacity="0.04"/>
<circle cx="15.03.625.0" cy="172.35.0" r="4.01195.0" fill="#25.02E3A" fill-opacity="0.04"/>
<circle cx="228.5.0" cy="172.35.0" r="4.01195.0" fill="#25.02E3A" fill-opacity="0.04"/>
<circle cx="191.076" cy="172.35.0" r="4.01195.0" fill="#25.02E3A" fill-opacity="0.04"/>
<circle cx="265.0.971" cy="172.35.0" r="4.01195.0" fill="#25.02E3A" fill-opacity="0.04"/>
<circle cx="172.334" cy="172.35.0" r="4.01195.0" fill="#25.02E3A" fill-opacity="0.04"/>
<circle cx="247.237" cy="172.35.0" r="4.01195.0" fill="#25.02E3A" fill-opacity="0.04"/>
<circle cx="209.801" cy="172.35.0" r="4.01195.0" fill="#25.02E3A" fill-opacity="0.04"/>
<circle cx="284.674" cy="172.35.0" r="4.01195.0" fill="#25.02E3A" fill-opacity="0.04"/>
<circle cx="15.03.625.0" cy="209.799" r="4.01195.0" fill="#25.02E3A" fill-opacity="0.04"/>
<circle cx="228.5.0" cy="209.799" r="4.01195.0" fill="#25.02E3A" fill-opacity="0.04"/>
<circle cx="191.076" cy="209.799" r="4.01195.0" fill="#25.02E3A" fill-opacity="0.04"/>
<circle cx="265.0.971" cy="209.799" r="4.01195.0" fill="#25.02E3A" fill-opacity="0.04"/>
<circle cx="172.334" cy="209.799" r="4.01195.0" fill="#25.02E3A" fill-opacity="0.04"/>
<circle cx="247.237" cy="209.799" r="4.01195.0" fill="#25.02E3A" fill-opacity="0.04"/>
<circle cx="209.801" cy="209.799" r="4.01195.0" fill="#25.02E3A" fill-opacity="0.04"/>
<circle cx="284.674" cy="209.799" r="4.01195.0" fill="#25.02E3A" fill-opacity="0.04"/>
<circle cx="15.03.625.0" cy="247.244" r="4.01195.0" fill="#25.02E3A" fill-opacity="0.04"/>
<circle cx="228.5.0" cy="247.244" r="4.01195.0" fill="#25.02E3A" fill-opacity="0.04"/>
<circle cx="191.076" cy="247.244" r="4.01195.0" fill="#25.02E3A" fill-opacity="0.04"/>
<circle cx="265.0.971" cy="247.244" r="4.01195.0" fill="#25.02E3A" fill-opacity="0.04"/>
<circle cx="172.334" cy="247.244" r="4.01195.0" fill="#25.02E3A" fill-opacity="0.04"/>
<circle cx="247.237" cy="247.244" r="4.01195.0" fill="#25.02E3A" fill-opacity="0.04"/>
<circle cx="209.801" cy="247.244" r="4.01195.0" fill="#25.02E3A" fill-opacity="0.04"/>
<circle cx="284.674" cy="247.244" r="4.01195.0" fill="#25.02E3A" fill-opacity="0.04"/>
<circle cx="15.03.625.0" cy="284.686" r="4.01195.0" fill="#25.02E3A" fill-opacity="0.04"/>
<circle cx="228.5.0" cy="284.685.0" r="4.01195.0" fill="#25.02E3A" fill-opacity="0.04"/>
<circle cx="191.076" cy="284.685.0" r="4.01195.0" fill="#25.02E3A" fill-opacity="0.04"/>
<circle cx="265.0.971" cy="284.686" r="4.01195.0" fill="#25.02E3A" fill-opacity="0.04"/>
<circle cx="172.334" cy="284.685.0" r="4.01195.0" fill="#25.02E3A" fill-opacity="0.04"/>
<circle cx="247.237" cy="284.685.0" r="4.01195.0" fill="#25.02E3A" fill-opacity="0.04"/>
<circle cx="209.801" cy="284.686" r="4.01195.0" fill="#25.02E3A" fill-opacity="0.04"/>
<circle cx="284.674" cy="284.685.0" r="4.01195.0" fill="#25.02E3A" fill-opacity="0.04"/>
</svg>
