<svg width="289" height="289" viewBox="0 0 289 289" fill="none" xmlns="http://www.w3.org/2000/svg">
<circle cx="4.01195" cy="4.01195" r="4.01195" fill="#252E3A" fill-opacity="0.04"/>
<circle cx="78.887" cy="4.01195" r="4.01195" fill="#252E3A" fill-opacity="0.04"/>
<circle cx="41.4631" cy="4.01195" r="4.01195" fill="#252E3A" fill-opacity="0.04"/>
<circle cx="116.358" cy="4.01195" r="4.01195" fill="#252E3A" fill-opacity="0.04"/>
<circle cx="22.7209" cy="4.01195" r="4.01195" fill="#252E3A" fill-opacity="0.04"/>
<circle cx="97.6233" cy="4.01195" r="4.01195" fill="#252E3A" fill-opacity="0.04"/>
<circle cx="60.1877" cy="4.01195" r="4.01195" fill="#252E3A" fill-opacity="0.04"/>
<circle cx="135.061" cy="4.01195" r="4.01195" fill="#252E3A" fill-opacity="0.04"/>
<circle cx="4.01195" cy="41.4538" r="4.01195" fill="#252E3A" fill-opacity="0.04"/>
<circle cx="78.887" cy="41.4543" r="4.01195" fill="#252E3A" fill-opacity="0.04"/>
<circle cx="41.4631" cy="41.4538" r="4.01195" fill="#252E3A" fill-opacity="0.04"/>
<circle cx="116.358" cy="41.4538" r="4.01195" fill="#252E3A" fill-opacity="0.04"/>
<circle cx="22.7209" cy="41.4538" r="4.01195" fill="#252E3A" fill-opacity="0.04"/>
<circle cx="97.6233" cy="41.4543" r="4.01195" fill="#252E3A" fill-opacity="0.04"/>
<circle cx="60.1877" cy="41.4538" r="4.01195" fill="#252E3A" fill-opacity="0.04"/>
<circle cx="135.061" cy="41.4543" r="4.01195" fill="#252E3A" fill-opacity="0.04"/>
<circle cx="4.01195" cy="78.9045" r="4.01195" fill="#252E3A" fill-opacity="0.04"/>
<circle cx="78.887" cy="78.9045" r="4.01195" fill="#252E3A" fill-opacity="0.04"/>
<circle cx="41.4631" cy="78.9045" r="4.01195" fill="#252E3A" fill-opacity="0.04"/>
<circle cx="116.358" cy="78.9045" r="4.01195" fill="#252E3A" fill-opacity="0.04"/>
<circle cx="22.7209" cy="78.9045" r="4.01195" fill="#252E3A" fill-opacity="0.04"/>
<circle cx="97.6233" cy="78.9045" r="4.01195" fill="#252E3A" fill-opacity="0.04"/>
<circle cx="60.1877" cy="78.9045" r="4.01195" fill="#252E3A" fill-opacity="0.04"/>
<circle cx="135.061" cy="78.9045" r="4.01195" fill="#252E3A" fill-opacity="0.04"/>
<circle cx="4.01195" cy="116.343" r="4.01195" fill="#252E3A" fill-opacity="0.04"/>
<circle cx="78.887" cy="116.343" r="4.01195" fill="#252E3A" fill-opacity="0.04"/>
<circle cx="41.4631" cy="116.343" r="4.01195" fill="#252E3A" fill-opacity="0.04"/>
<circle cx="116.358" cy="116.343" r="4.01195" fill="#252E3A" fill-opacity="0.04"/>
<circle cx="22.7209" cy="116.343" r="4.01195" fill="#252E3A" fill-opacity="0.04"/>
<circle cx="97.6233" cy="116.343" r="4.01195" fill="#252E3A" fill-opacity="0.04"/>
<circle cx="60.1877" cy="116.343" r="4.01195" fill="#252E3A" fill-opacity="0.04"/>
<circle cx="135.061" cy="116.343" r="4.01195" fill="#252E3A" fill-opacity="0.04"/>
<circle cx="4.01195" cy="22.7312" r="4.01195" fill="#252E3A" fill-opacity="0.04"/>
<circle cx="78.887" cy="22.7312" r="4.01195" fill="#252E3A" fill-opacity="0.04"/>
<circle cx="41.4631" cy="22.7312" r="4.01195" fill="#252E3A" fill-opacity="0.04"/>
<circle cx="116.358" cy="22.7312" r="4.01195" fill="#252E3A" fill-opacity="0.04"/>
<circle cx="22.7209" cy="22.7312" r="4.01195" fill="#252E3A" fill-opacity="0.04"/>
<circle cx="97.6233" cy="22.7312" r="4.01195" fill="#252E3A" fill-opacity="0.04"/>
<circle cx="60.1877" cy="22.7312" r="4.01195" fill="#252E3A" fill-opacity="0.04"/>
<circle cx="135.061" cy="22.7312" r="4.01195" fill="#252E3A" fill-opacity="0.04"/>
<circle cx="4.01195" cy="60.1799" r="4.01195" fill="#252E3A" fill-opacity="0.04"/>
<circle cx="78.887" cy="60.1799" r="4.01195" fill="#252E3A" fill-opacity="0.04"/>
<circle cx="41.4631" cy="60.1799" r="4.01195" fill="#252E3A" fill-opacity="0.04"/>
<circle cx="116.358" cy="60.1799" r="4.01195" fill="#252E3A" fill-opacity="0.04"/>
<circle cx="22.7209" cy="60.1799" r="4.01195" fill="#252E3A" fill-opacity="0.04"/>
<circle cx="97.6233" cy="60.1799" r="4.01195" fill="#252E3A" fill-opacity="0.04"/>
<circle cx="60.1877" cy="60.1799" r="4.01195" fill="#252E3A" fill-opacity="0.04"/>
<circle cx="135.061" cy="60.1799" r="4.01195" fill="#252E3A" fill-opacity="0.04"/>
<circle cx="4.01195" cy="97.6252" r="4.01195" fill="#252E3A" fill-opacity="0.04"/>
<circle cx="78.887" cy="97.6257" r="4.01195" fill="#252E3A" fill-opacity="0.04"/>
<circle cx="41.4631" cy="97.6257" r="4.01195" fill="#252E3A" fill-opacity="0.04"/>
<circle cx="116.358" cy="97.6252" r="4.01195" fill="#252E3A" fill-opacity="0.04"/>
<circle cx="22.7209" cy="97.6257" r="4.01195" fill="#252E3A" fill-opacity="0.04"/>
<circle cx="97.6233" cy="97.6257" r="4.01195" fill="#252E3A" fill-opacity="0.04"/>
<circle cx="60.1877" cy="97.6252" r="4.01195" fill="#252E3A" fill-opacity="0.04"/>
<circle cx="135.061" cy="97.6257" r="4.01195" fill="#252E3A" fill-opacity="0.04"/>
<circle cx="4.01195" cy="135.067" r="4.01195" fill="#252E3A" fill-opacity="0.04"/>
<circle cx="78.887" cy="135.067" r="4.01195" fill="#252E3A" fill-opacity="0.04"/>
<circle cx="41.4631" cy="135.067" r="4.01195" fill="#252E3A" fill-opacity="0.04"/>
<circle cx="116.358" cy="135.067" r="4.01195" fill="#252E3A" fill-opacity="0.04"/>
<circle cx="22.7209" cy="135.067" r="4.01195" fill="#252E3A" fill-opacity="0.04"/>
<circle cx="97.6233" cy="135.067" r="4.01195" fill="#252E3A" fill-opacity="0.04"/>
<circle cx="60.1877" cy="135.067" r="4.01195" fill="#252E3A" fill-opacity="0.04"/>
<circle cx="135.061" cy="135.067" r="4.01195" fill="#252E3A" fill-opacity="0.04"/>
<circle cx="4.01195" cy="153.631" r="4.01195" fill="#252E3A" fill-opacity="0.04"/>
<circle cx="78.887" cy="153.631" r="4.01195" fill="#252E3A" fill-opacity="0.04"/>
<circle cx="41.4631" cy="153.631" r="4.01195" fill="#252E3A" fill-opacity="0.04"/>
<circle cx="116.358" cy="153.631" r="4.01195" fill="#252E3A" fill-opacity="0.04"/>
<circle cx="22.7209" cy="153.631" r="4.01195" fill="#252E3A" fill-opacity="0.04"/>
<circle cx="97.6233" cy="153.631" r="4.01195" fill="#252E3A" fill-opacity="0.04"/>
<circle cx="60.1877" cy="153.631" r="4.01195" fill="#252E3A" fill-opacity="0.04"/>
<circle cx="135.061" cy="153.631" r="4.01195" fill="#252E3A" fill-opacity="0.04"/>
<circle cx="4.01195" cy="191.073" r="4.01195" fill="#252E3A" fill-opacity="0.04"/>
<circle cx="78.887" cy="191.073" r="4.01195" fill="#252E3A" fill-opacity="0.04"/>
<circle cx="41.4631" cy="191.073" r="4.01195" fill="#252E3A" fill-opacity="0.04"/>
<circle cx="116.358" cy="191.073" r="4.01195" fill="#252E3A" fill-opacity="0.04"/>
<circle cx="22.7209" cy="191.073" r="4.01195" fill="#252E3A" fill-opacity="0.04"/>
<circle cx="97.6233" cy="191.073" r="4.01195" fill="#252E3A" fill-opacity="0.04"/>
<circle cx="60.1877" cy="191.073" r="4.01195" fill="#252E3A" fill-opacity="0.04"/>
<circle cx="135.061" cy="191.073" r="4.01195" fill="#252E3A" fill-opacity="0.04"/>
<circle cx="4.01195" cy="228.523" r="4.01195" fill="#252E3A" fill-opacity="0.04"/>
<circle cx="78.887" cy="228.523" r="4.01195" fill="#252E3A" fill-opacity="0.04"/>
<circle cx="41.4631" cy="228.523" r="4.01195" fill="#252E3A" fill-opacity="0.04"/>
<circle cx="116.358" cy="228.523" r="4.01195" fill="#252E3A" fill-opacity="0.04"/>
<circle cx="22.7209" cy="228.523" r="4.01195" fill="#252E3A" fill-opacity="0.04"/>
<circle cx="97.6233" cy="228.523" r="4.01195" fill="#252E3A" fill-opacity="0.04"/>
<circle cx="60.1877" cy="228.523" r="4.01195" fill="#252E3A" fill-opacity="0.04"/>
<circle cx="135.061" cy="228.523" r="4.01195" fill="#252E3A" fill-opacity="0.04"/>
<circle cx="4.01195" cy="265.962" r="4.01195" fill="#252E3A" fill-opacity="0.04"/>
<circle cx="78.887" cy="265.962" r="4.01195" fill="#252E3A" fill-opacity="0.04"/>
<circle cx="41.4631" cy="265.962" r="4.01195" fill="#252E3A" fill-opacity="0.04"/>
<circle cx="116.358" cy="265.962" r="4.01195" fill="#252E3A" fill-opacity="0.04"/>
<circle cx="22.7209" cy="265.962" r="4.01195" fill="#252E3A" fill-opacity="0.04"/>
<circle cx="97.6233" cy="265.962" r="4.01195" fill="#252E3A" fill-opacity="0.04"/>
<circle cx="60.1877" cy="265.962" r="4.01195" fill="#252E3A" fill-opacity="0.04"/>
<circle cx="135.061" cy="265.962" r="4.01195" fill="#252E3A" fill-opacity="0.04"/>
<circle cx="4.01195" cy="172.35" r="4.01195" fill="#252E3A" fill-opacity="0.04"/>
<circle cx="78.887" cy="172.35" r="4.01195" fill="#252E3A" fill-opacity="0.04"/>
<circle cx="41.4631" cy="172.35" r="4.01195" fill="#252E3A" fill-opacity="0.04"/>
<circle cx="116.358" cy="172.35" r="4.01195" fill="#252E3A" fill-opacity="0.04"/>
<circle cx="22.7209" cy="172.35" r="4.01195" fill="#252E3A" fill-opacity="0.04"/>
<circle cx="97.6233" cy="172.35" r="4.01195" fill="#252E3A" fill-opacity="0.04"/>
<circle cx="60.1877" cy="172.35" r="4.01195" fill="#252E3A" fill-opacity="0.04"/>
<circle cx="135.061" cy="172.35" r="4.01195" fill="#252E3A" fill-opacity="0.04"/>
<circle cx="4.01195" cy="209.799" r="4.01195" fill="#252E3A" fill-opacity="0.04"/>
<circle cx="78.887" cy="209.799" r="4.01195" fill="#252E3A" fill-opacity="0.04"/>
<circle cx="41.4631" cy="209.799" r="4.01195" fill="#252E3A" fill-opacity="0.04"/>
<circle cx="116.358" cy="209.799" r="4.01195" fill="#252E3A" fill-opacity="0.04"/>
<circle cx="22.7209" cy="209.799" r="4.01195" fill="#252E3A" fill-opacity="0.04"/>
<circle cx="97.6233" cy="209.799" r="4.01195" fill="#252E3A" fill-opacity="0.04"/>
<circle cx="60.1877" cy="209.799" r="4.01195" fill="#252E3A" fill-opacity="0.04"/>
<circle cx="135.061" cy="209.799" r="4.01195" fill="#252E3A" fill-opacity="0.04"/>
<circle cx="4.01195" cy="247.244" r="4.01195" fill="#252E3A" fill-opacity="0.04"/>
<circle cx="78.887" cy="247.244" r="4.01195" fill="#252E3A" fill-opacity="0.04"/>
<circle cx="41.4631" cy="247.244" r="4.01195" fill="#252E3A" fill-opacity="0.04"/>
<circle cx="116.358" cy="247.244" r="4.01195" fill="#252E3A" fill-opacity="0.04"/>
<circle cx="22.7209" cy="247.244" r="4.01195" fill="#252E3A" fill-opacity="0.04"/>
<circle cx="97.6233" cy="247.244" r="4.01195" fill="#252E3A" fill-opacity="0.04"/>
<circle cx="60.1877" cy="247.244" r="4.01195" fill="#252E3A" fill-opacity="0.04"/>
<circle cx="135.061" cy="247.244" r="4.01195" fill="#252E3A" fill-opacity="0.04"/>
<circle cx="4.01195" cy="284.686" r="4.01195" fill="#252E3A" fill-opacity="0.04"/>
<circle cx="78.887" cy="284.685" r="4.01195" fill="#252E3A" fill-opacity="0.04"/>
<circle cx="41.4631" cy="284.685" r="4.01195" fill="#252E3A" fill-opacity="0.04"/>
<circle cx="116.358" cy="284.686" r="4.01195" fill="#252E3A" fill-opacity="0.04"/>
<circle cx="22.7209" cy="284.685" r="4.01195" fill="#252E3A" fill-opacity="0.04"/>
<circle cx="97.6233" cy="284.685" r="4.01195" fill="#252E3A" fill-opacity="0.04"/>
<circle cx="60.1877" cy="284.686" r="4.01195" fill="#252E3A" fill-opacity="0.04"/>
<circle cx="135.061" cy="284.685" r="4.01195" fill="#252E3A" fill-opacity="0.04"/>
<circle cx="153.625" cy="4.01195" r="4.01195" fill="#252E3A" fill-opacity="0.04"/>
<circle cx="228.5" cy="4.01195" r="4.01195" fill="#252E3A" fill-opacity="0.04"/>
<circle cx="191.076" cy="4.01195" r="4.01195" fill="#252E3A" fill-opacity="0.04"/>
<circle cx="265.971" cy="4.01195" r="4.01195" fill="#252E3A" fill-opacity="0.04"/>
<circle cx="172.334" cy="4.01195" r="4.01195" fill="#252E3A" fill-opacity="0.04"/>
<circle cx="247.237" cy="4.01195" r="4.01195" fill="#252E3A" fill-opacity="0.04"/>
<circle cx="209.801" cy="4.01195" r="4.01195" fill="#252E3A" fill-opacity="0.04"/>
<circle cx="284.674" cy="4.01195" r="4.01195" fill="#252E3A" fill-opacity="0.04"/>
<circle cx="153.625" cy="41.4538" r="4.01195" fill="#252E3A" fill-opacity="0.04"/>
<circle cx="228.5" cy="41.4543" r="4.01195" fill="#252E3A" fill-opacity="0.04"/>
<circle cx="191.076" cy="41.4543" r="4.01195" fill="#252E3A" fill-opacity="0.04"/>
<circle cx="265.971" cy="41.4538" r="4.01195" fill="#252E3A" fill-opacity="0.04"/>
<circle cx="172.334" cy="41.4543" r="4.01195" fill="#252E3A" fill-opacity="0.04"/>
<circle cx="247.237" cy="41.4543" r="4.01195" fill="#252E3A" fill-opacity="0.04"/>
<circle cx="209.801" cy="41.4538" r="4.01195" fill="#252E3A" fill-opacity="0.04"/>
<circle cx="284.674" cy="41.4543" r="4.01195" fill="#252E3A" fill-opacity="0.04"/>
<circle cx="153.625" cy="78.9045" r="4.01195" fill="#252E3A" fill-opacity="0.04"/>
<circle cx="228.5" cy="78.9045" r="4.01195" fill="#252E3A" fill-opacity="0.04"/>
<circle cx="191.076" cy="78.9045" r="4.01195" fill="#252E3A" fill-opacity="0.04"/>
<circle cx="265.971" cy="78.9045" r="4.01195" fill="#252E3A" fill-opacity="0.04"/>
<circle cx="172.334" cy="78.9045" r="4.01195" fill="#252E3A" fill-opacity="0.04"/>
<circle cx="247.237" cy="78.9045" r="4.01195" fill="#252E3A" fill-opacity="0.04"/>
<circle cx="209.801" cy="78.9045" r="4.01195" fill="#252E3A" fill-opacity="0.04"/>
<circle cx="284.674" cy="78.9045" r="4.01195" fill="#252E3A" fill-opacity="0.04"/>
<circle cx="153.625" cy="116.343" r="4.01195" fill="#252E3A" fill-opacity="0.04"/>
<circle cx="228.5" cy="116.343" r="4.01195" fill="#252E3A" fill-opacity="0.04"/>
<circle cx="191.076" cy="116.343" r="4.01195" fill="#252E3A" fill-opacity="0.04"/>
<circle cx="265.971" cy="116.343" r="4.01195" fill="#252E3A" fill-opacity="0.04"/>
<circle cx="172.334" cy="116.343" r="4.01195" fill="#252E3A" fill-opacity="0.04"/>
<circle cx="247.237" cy="116.343" r="4.01195" fill="#252E3A" fill-opacity="0.04"/>
<circle cx="209.801" cy="116.343" r="4.01195" fill="#252E3A" fill-opacity="0.04"/>
<circle cx="284.674" cy="116.343" r="4.01195" fill="#252E3A" fill-opacity="0.04"/>
<circle cx="153.625" cy="22.7312" r="4.01195" fill="#252E3A" fill-opacity="0.04"/>
<circle cx="228.5" cy="22.7312" r="4.01195" fill="#252E3A" fill-opacity="0.04"/>
<circle cx="191.076" cy="22.7312" r="4.01195" fill="#252E3A" fill-opacity="0.04"/>
<circle cx="265.971" cy="22.7312" r="4.01195" fill="#252E3A" fill-opacity="0.04"/>
<circle cx="172.334" cy="22.7312" r="4.01195" fill="#252E3A" fill-opacity="0.04"/>
<circle cx="247.237" cy="22.7312" r="4.01195" fill="#252E3A" fill-opacity="0.04"/>
<circle cx="209.801" cy="22.7312" r="4.01195" fill="#252E3A" fill-opacity="0.04"/>
<circle cx="284.674" cy="22.7312" r="4.01195" fill="#252E3A" fill-opacity="0.04"/>
<circle cx="153.625" cy="60.1799" r="4.01195" fill="#252E3A" fill-opacity="0.04"/>
<circle cx="228.5" cy="60.1799" r="4.01195" fill="#252E3A" fill-opacity="0.04"/>
<circle cx="191.076" cy="60.1799" r="4.01195" fill="#252E3A" fill-opacity="0.04"/>
<circle cx="265.971" cy="60.1799" r="4.01195" fill="#252E3A" fill-opacity="0.04"/>
<circle cx="172.334" cy="60.1799" r="4.01195" fill="#252E3A" fill-opacity="0.04"/>
<circle cx="247.237" cy="60.1799" r="4.01195" fill="#252E3A" fill-opacity="0.04"/>
<circle cx="209.801" cy="60.1799" r="4.01195" fill="#252E3A" fill-opacity="0.04"/>
<circle cx="284.674" cy="60.1799" r="4.01195" fill="#252E3A" fill-opacity="0.04"/>
<circle cx="153.625" cy="97.6252" r="4.01195" fill="#252E3A" fill-opacity="0.04"/>
<circle cx="228.5" cy="97.6257" r="4.01195" fill="#252E3A" fill-opacity="0.04"/>
<circle cx="191.076" cy="97.6257" r="4.01195" fill="#252E3A" fill-opacity="0.04"/>
<circle cx="265.971" cy="97.6252" r="4.01195" fill="#252E3A" fill-opacity="0.04"/>
<circle cx="172.334" cy="97.6257" r="4.01195" fill="#252E3A" fill-opacity="0.04"/>
<circle cx="247.237" cy="97.6257" r="4.01195" fill="#252E3A" fill-opacity="0.04"/>
<circle cx="209.801" cy="97.6252" r="4.01195" fill="#252E3A" fill-opacity="0.04"/>
<circle cx="284.674" cy="97.6257" r="4.01195" fill="#252E3A" fill-opacity="0.04"/>
<circle cx="153.625" cy="135.067" r="4.01195" fill="#252E3A" fill-opacity="0.04"/>
<circle cx="228.5" cy="135.067" r="4.01195" fill="#252E3A" fill-opacity="0.04"/>
<circle cx="191.076" cy="135.067" r="4.01195" fill="#252E3A" fill-opacity="0.04"/>
<circle cx="265.971" cy="135.067" r="4.01195" fill="#252E3A" fill-opacity="0.04"/>
<circle cx="172.334" cy="135.067" r="4.01195" fill="#252E3A" fill-opacity="0.04"/>
<circle cx="247.237" cy="135.067" r="4.01195" fill="#252E3A" fill-opacity="0.04"/>
<circle cx="209.801" cy="135.067" r="4.01195" fill="#252E3A" fill-opacity="0.04"/>
<circle cx="284.674" cy="135.067" r="4.01195" fill="#252E3A" fill-opacity="0.04"/>
<circle cx="153.625" cy="153.631" r="4.01195" fill="#252E3A" fill-opacity="0.04"/>
<circle cx="228.5" cy="153.631" r="4.01195" fill="#252E3A" fill-opacity="0.04"/>
<circle cx="191.076" cy="153.631" r="4.01195" fill="#252E3A" fill-opacity="0.04"/>
<circle cx="265.971" cy="153.631" r="4.01195" fill="#252E3A" fill-opacity="0.04"/>
<circle cx="172.334" cy="153.631" r="4.01195" fill="#252E3A" fill-opacity="0.04"/>
<circle cx="247.237" cy="153.631" r="4.01195" fill="#252E3A" fill-opacity="0.04"/>
<circle cx="209.801" cy="153.631" r="4.01195" fill="#252E3A" fill-opacity="0.04"/>
<circle cx="284.674" cy="153.631" r="4.01195" fill="#252E3A" fill-opacity="0.04"/>
<circle cx="153.625" cy="191.073" r="4.01195" fill="#252E3A" fill-opacity="0.04"/>
<circle cx="228.5" cy="191.073" r="4.01195" fill="#252E3A" fill-opacity="0.04"/>
<circle cx="191.076" cy="191.073" r="4.01195" fill="#252E3A" fill-opacity="0.04"/>
<circle cx="265.971" cy="191.073" r="4.01195" fill="#252E3A" fill-opacity="0.04"/>
<circle cx="172.334" cy="191.073" r="4.01195" fill="#252E3A" fill-opacity="0.04"/>
<circle cx="247.237" cy="191.073" r="4.01195" fill="#252E3A" fill-opacity="0.04"/>
<circle cx="209.801" cy="191.073" r="4.01195" fill="#252E3A" fill-opacity="0.04"/>
<circle cx="284.674" cy="191.073" r="4.01195" fill="#252E3A" fill-opacity="0.04"/>
<circle cx="153.625" cy="228.523" r="4.01195" fill="#252E3A" fill-opacity="0.04"/>
<circle cx="228.5" cy="228.523" r="4.01195" fill="#252E3A" fill-opacity="0.04"/>
<circle cx="191.076" cy="228.523" r="4.01195" fill="#252E3A" fill-opacity="0.04"/>
<circle cx="265.971" cy="228.523" r="4.01195" fill="#252E3A" fill-opacity="0.04"/>
<circle cx="172.334" cy="228.523" r="4.01195" fill="#252E3A" fill-opacity="0.04"/>
<circle cx="247.237" cy="228.523" r="4.01195" fill="#252E3A" fill-opacity="0.04"/>
<circle cx="209.801" cy="228.523" r="4.01195" fill="#252E3A" fill-opacity="0.04"/>
<circle cx="284.674" cy="228.523" r="4.01195" fill="#252E3A" fill-opacity="0.04"/>
<circle cx="153.625" cy="265.962" r="4.01195" fill="#252E3A" fill-opacity="0.04"/>
<circle cx="228.5" cy="265.962" r="4.01195" fill="#252E3A" fill-opacity="0.04"/>
<circle cx="191.076" cy="265.962" r="4.01195" fill="#252E3A" fill-opacity="0.04"/>
<circle cx="265.971" cy="265.962" r="4.01195" fill="#252E3A" fill-opacity="0.04"/>
<circle cx="172.334" cy="265.962" r="4.01195" fill="#252E3A" fill-opacity="0.04"/>
<circle cx="247.237" cy="265.962" r="4.01195" fill="#252E3A" fill-opacity="0.04"/>
<circle cx="209.801" cy="265.962" r="4.01195" fill="#252E3A" fill-opacity="0.04"/>
<circle cx="284.674" cy="265.962" r="4.01195" fill="#252E3A" fill-opacity="0.04"/>
<circle cx="153.625" cy="172.35" r="4.01195" fill="#252E3A" fill-opacity="0.04"/>
<circle cx="228.5" cy="172.35" r="4.01195" fill="#252E3A" fill-opacity="0.04"/>
<circle cx="191.076" cy="172.35" r="4.01195" fill="#252E3A" fill-opacity="0.04"/>
<circle cx="265.971" cy="172.35" r="4.01195" fill="#252E3A" fill-opacity="0.04"/>
<circle cx="172.334" cy="172.35" r="4.01195" fill="#252E3A" fill-opacity="0.04"/>
<circle cx="247.237" cy="172.35" r="4.01195" fill="#252E3A" fill-opacity="0.04"/>
<circle cx="209.801" cy="172.35" r="4.01195" fill="#252E3A" fill-opacity="0.04"/>
<circle cx="284.674" cy="172.35" r="4.01195" fill="#252E3A" fill-opacity="0.04"/>
<circle cx="153.625" cy="209.799" r="4.01195" fill="#252E3A" fill-opacity="0.04"/>
<circle cx="228.5" cy="209.799" r="4.01195" fill="#252E3A" fill-opacity="0.04"/>
<circle cx="191.076" cy="209.799" r="4.01195" fill="#252E3A" fill-opacity="0.04"/>
<circle cx="265.971" cy="209.799" r="4.01195" fill="#252E3A" fill-opacity="0.04"/>
<circle cx="172.334" cy="209.799" r="4.01195" fill="#252E3A" fill-opacity="0.04"/>
<circle cx="247.237" cy="209.799" r="4.01195" fill="#252E3A" fill-opacity="0.04"/>
<circle cx="209.801" cy="209.799" r="4.01195" fill="#252E3A" fill-opacity="0.04"/>
<circle cx="284.674" cy="209.799" r="4.01195" fill="#252E3A" fill-opacity="0.04"/>
<circle cx="153.625" cy="247.244" r="4.01195" fill="#252E3A" fill-opacity="0.04"/>
<circle cx="228.5" cy="247.244" r="4.01195" fill="#252E3A" fill-opacity="0.04"/>
<circle cx="191.076" cy="247.244" r="4.01195" fill="#252E3A" fill-opacity="0.04"/>
<circle cx="265.971" cy="247.244" r="4.01195" fill="#252E3A" fill-opacity="0.04"/>
<circle cx="172.334" cy="247.244" r="4.01195" fill="#252E3A" fill-opacity="0.04"/>
<circle cx="247.237" cy="247.244" r="4.01195" fill="#252E3A" fill-opacity="0.04"/>
<circle cx="209.801" cy="247.244" r="4.01195" fill="#252E3A" fill-opacity="0.04"/>
<circle cx="284.674" cy="247.244" r="4.01195" fill="#252E3A" fill-opacity="0.04"/>
<circle cx="153.625" cy="284.686" r="4.01195" fill="#252E3A" fill-opacity="0.04"/>
<circle cx="228.5" cy="284.685" r="4.01195" fill="#252E3A" fill-opacity="0.04"/>
<circle cx="191.076" cy="284.685" r="4.01195" fill="#252E3A" fill-opacity="0.04"/>
<circle cx="265.971" cy="284.686" r="4.01195" fill="#252E3A" fill-opacity="0.04"/>
<circle cx="172.334" cy="284.685" r="4.01195" fill="#252E3A" fill-opacity="0.04"/>
<circle cx="247.237" cy="284.685" r="4.01195" fill="#252E3A" fill-opacity="0.04"/>
<circle cx="209.801" cy="284.686" r="4.01195" fill="#252E3A" fill-opacity="0.04"/>
<circle cx="284.674" cy="284.685" r="4.01195" fill="#252E3A" fill-opacity="0.04"/>
</svg>
