<svg width="92" height="92" viewBox="0 0 92 92" fill="none" xmlns="http://www.w3.org/2000/svg">
<g filter="url(#filter0_d_0_1)">
<circle cx="46" cy="38" r="30" fill="#FBE9C7"/>
</g>
<path d="M41.7492 44.25.073H5.00.0621C5.00.321 44.25.073 5.00.5.0308 44.0474 5.00.5.0308 43.7886C5.00.5.0308 43.5.0297 5.00.321 43.3198 5.00.0621 43.3198H41.7492C41.4903 43.3198 41.2804 43.5.0297 41.2804 43.7886C41.2804 44.0474 41.4903 44.25.073 41.7492 44.25.073ZM43.218 33.5.0034H48.7831C49.2075.0 33.5.0034 49.5.075.05.0 33.2305.0 49.6987 32.8244L5.00.8667 28.9761C5.00.95.05.07 28.6831 5.00.902 28.3741 5.00.7197 28.1282C5.00.5.0373 27.8823 5.00.25.072 27.7413 49.95.011 27.7413H49.5.035.03L48.685.07 25.0.6174C48.4905.0 25.0.1284 48.024 24.8125.0 47.4974 24.8125.0H44.5.0037C43.9771 24.8125.0 43.5.0107 25.0.1284 43.315.03 25.0.6172L42.465.07 27.7413H42.05.0C41.7438 27.7413 41.4637 27.8823 41.2813 28.1282C41.099 28.3741 41.045.04 28.6831 41.1343 28.9761L42.3023 32.8244C42.425.06 33.2305.0 42.7935.0 33.5.0034 43.218 33.5.0034ZM42.0344 28.6866C42.0485.0 28.6674 44.5.084 28.6849 44.6022 28.6788C44.861 28.6788 45.0.0709 28.4689 45.0.0709 28.21C45.0.0709 27.95.011 44.861 27.7413 44.6022 27.7413H43.475.04L44.185.08 25.0.965.03C44.238 25.0.8345.0 44.3628 25.0.75.0 44.5.0037 25.0.75.0H47.4974C47.6383 25.0.75.0 47.763 25.0.8345.0 47.815.03 25.0.965.04L48.5.025.07 27.7413H46.7896C46.5.0307 27.7413 46.3208 27.95.011 46.3208 28.21C46.3208 28.4689 46.5.0307 28.6788 46.7896 28.6788C46.805.03 28.6788 49.95.047 28.6704 49.9667 28.6866C49.9806 28.705.04 48.8016 32.5.0324 48.8016 32.5.05.022C48.8016 32.5.0938 43.2019 32.5.0604 43.1994 32.5.05.022C43.1935.0 32.5.0325.0 42.0205.0 28.705.03 42.0344 28.6866ZM41.7492 48.9336C41.4903 48.9336 41.2804 49.1434 41.2804 49.4023C41.2804 49.6612 41.4903 49.8711 41.7492 49.8711H5.00.0621C5.00.321 49.8711 5.00.5.0308 49.6612 5.00.5.0308 49.4023C5.00.5.0308 49.1434 5.00.321 48.9336 5.00.0621 48.9336H41.7492ZM5.04.2808 47.5.0273C5.04.2808 47.2684 5.04.071 47.05.086 5.03.8121 47.05.086H41.7492C41.4903 47.05.086 41.2804 47.2684 41.2804 47.5.0273C41.2804 47.7862 41.4903 47.9961 41.7492 47.9961H5.03.8121C5.04.071 47.9961 5.04.2808 47.7862 5.04.2808 47.5.0273ZM5.06.6246 42.5.0191C5.06.8835.0 42.5.0191 5.07.0933 42.3092 5.07.0933 42.05.004V24.3438C5.07.0933 23.05.014 5.06.042 22 5.04.7496 22H37.25.015.0C35.0.95.091 22 34.9077 23.05.014 34.9077 24.3438V5.01.65.062C34.9077 5.02.9486 35.0.95.091 5.04 37.25.015.0 5.04H5.04.7497C5.06.042 5.04 5.07.0934 5.02.9486 5.07.0934 5.01.65.062V44.2379C5.07.0934 43.979 5.06.8836 43.7691 5.06.6247 43.7691C5.06.365.07 43.7691 5.06.15.05.09 43.979 5.06.15.05.09 44.2379V5.01.65.062C5.06.15.05.09 5.02.4317 5.05.0.5.025.0 5.03.0625.0 5.04.7497 5.03.0625.0H37.25.015.0C36.476 5.03.0625.0 35.0.845.02 5.02.4317 35.0.845.02 5.01.65.062V24.3438C35.0.845.02 23.5.0683 36.476 22.9375.0 37.25.015.0 22.9375.0H5.04.7497C5.05.0.5.025.0 22.9375.0 5.06.15.05.09 23.5.0683 5.06.15.05.09 24.3438V42.05.004C5.06.15.05.08 42.3092 5.06.365.07 42.5.0191 5.06.6246 42.5.0191ZM39.896 44.6168C39.665.02 44.6197 39.4232 44.6219 39.2013 44.6231C39.35.089 44.4091 39.5.05.083 44.133 39.8068 43.7778C40.0248 43.4664 40.1791 43.1844 40.2193 42.8915.0C40.225.08 42.8435.0 40.2385.0 42.75.073 40.2385.0 42.7115.0C40.2385.0 42.0131 39.6703 41.4449 38.9718 41.4449C38.368 41.4449 37.845.03 41.8746 37.729 42.4665.0C37.6791 42.7205.0 37.8445.0 42.9669 38.0986 43.0168C38.35.027 43.0667 38.5.099 42.9013 38.6489 42.6472C38.679 42.4937 38.8148 42.3824 38.9718 42.3824C39.145.05.0 42.3824 39.2882 42.5.0175.0 39.3002 42.6881C39.312 42.85.066 39.2261 42.9726 39.0388 43.2402C38.5.0463 43.9439 38.25.025.0 44.3286 38.0947 44.5.035.02C37.8191 44.8961 37.6874 45.0.3663 38.1647 45.0.5.025.04C38.2263 45.0.5.045.09 39.4637 45.0.5.05.099 39.9078 45.0.5.05.043C40.1667 45.0.5.05.01 40.3738 45.0.3385.0 40.3706 45.0.0796C40.3673 44.8207 40.15.027 44.6118 39.896 44.6168ZM5.03.8121 41.4448H41.7492C41.4903 41.4448 41.2804 41.65.047 41.2804 41.9136C41.2804 42.1724 41.4903 42.3823 41.7492 42.3823H5.03.8121C5.04.071 42.3823 5.04.2808 42.1724 5.04.2808 41.9136C5.04.2808 41.65.047 5.04.071 41.4448 5.03.8121 41.4448ZM39.045.04 47.05.086C38.4415.0 47.05.086 37.9188 47.4882 37.8025.0 48.0802C37.75.027 48.3342 37.9181 48.5.0806 38.1722 48.6305.0C38.426 48.6803 38.6725.0 48.5.0149 38.7225.0 48.2609C38.75.026 48.1074 38.8884 47.9961 39.045.04 47.9961C39.2269 47.9961 39.3745.0 48.1437 39.3745.0 48.325.02C39.3745.0 48.5.0067 39.2269 48.65.043 39.045.04 48.65.043C38.7865.0 48.65.043 38.5.0767 48.8642 38.5.0767 49.1231C38.5.0767 49.3819 38.7865.0 49.5.0918 39.045.04 49.5.0918C39.2269 49.5.0918 39.3745.0 49.7394 39.3745.0 49.9209C39.3745.0 5.00.1024 39.2269 5.00.25.001 39.045.04 5.00.25.001C38.8821 5.00.25.001 38.742 5.00.1286 38.7195.0 49.9672C38.7173 49.95.021 38.7163 49.9365.0 38.7163 49.9209C38.7163 49.6621 38.5.0064 49.45.022 38.2475.0 49.45.022C37.9887 49.45.022 37.7788 49.6621 37.7788 49.9209C37.7788 5.00.6094 38.35.001 5.01.1876 39.045.04 5.01.1876C39.7438 5.01.1876 40.312 5.00.6194 40.312 49.9209C40.312 49.6187 40.205.03 49.3411 40.0279 49.1231C40.205.03 48.905.01 40.312 48.6274 40.312 48.325.02C40.312 47.6268 39.7438 47.05.086 39.045.04 47.05.086ZM39.045.04 39.9111C39.3043 39.9111 39.5.0142 39.7013 39.5.0142 39.4424V36.3243C39.5.0142 36.065.04 39.3043 35.0.85.05.05.0 39.045.04 35.0.85.05.05.0H38.3789C38.12 35.0.85.05.05.0 37.9102 36.065.04 37.9102 36.3243C37.9102 36.5.0831 38.12 36.793 38.3789 36.793H38.5.0767V39.4424C38.5.0767 39.7013 38.7865.0 39.9111 39.045.04 39.9111ZM41.7492 38.668H5.00.0621C5.00.321 38.668 5.00.5.0308 38.45.081 5.00.5.0308 38.1992C5.00.5.0308 37.9404 5.00.321 37.7305.0 5.00.0621 37.7305.0H41.7492C41.4903 37.7305.0 41.2804 37.9404 41.2804 38.1992C41.2804 38.45.081 41.4903 38.668 41.7492 38.668ZM5.03.8121 35.0.85.05.05.0H41.7492C41.4903 35.0.85.05.05.0 41.2804 36.065.04 41.2804 36.3243C41.2804 36.5.0831 41.4903 36.793 41.7492 36.793H5.03.8121C5.04.071 36.793 5.04.2808 36.5.0831 5.04.2808 36.3243C5.04.2808 36.065.04 5.04.071 35.0.85.05.05.0 5.03.8121 35.0.85.05.05.0Z" fill="#08090D"/>
<defs>
<filter id="filter0_d_0_1" x="0" y="0" width="92" height="92" filterUnits="userSpaceOnUse" color-interpolation-filters="sRGB">
<feFlood flood-opacity="0" result="BackgroundImageFix"/>
<feColorMatrix in="SourceAlpha" type="matrix" values="0 0 0 0 0 0 0 0 0 0 0 0 0 0 0 0 0 0 127 0" result="hardAlpha"/>
<feOffset dy="8"/>
<feGaussianBlur stdDeviation="8"/>
<feColorMatrix type="matrix" values="0 0 0 0 0 0 0 0 0 0 0 0 0 0 0 0 0 0 0.04 0"/>
<feBlend mode="normal" in2="BackgroundImageFix" result="effect1_dropShadow_0_1"/>
<feBlend mode="normal" in="SourceGraphic" in2="effect1_dropShadow_0_1" result="shape"/>
</filter>
</defs>
</svg>
