<svg width="92" height="92" viewBox="0 0 92 92" fill="none" xmlns="http://www.w3.org/2000/svg">
<g filter="url(#filter0_d_0_1)">
<circle cx="46" cy="38" r="30" fill="#FBE9C7"/>
</g>
<path d="M41.7492 44.2573H50.0621C50.321 44.2573 50.5308 44.0474 50.5308 43.7886C50.5308 43.5297 50.321 43.3198 50.0621 43.3198H41.7492C41.4903 43.3198 41.2804 43.5297 41.2804 43.7886C41.2804 44.0474 41.4903 44.2573 41.7492 44.2573ZM43.218 33.5034H48.7831C49.2075 33.5034 49.5755 33.2305 49.6987 32.8244L50.8667 28.9761C50.9557 28.6831 50.902 28.3741 50.7197 28.1282C50.5373 27.8823 50.2572 27.7413 49.9511 27.7413H49.5353L48.6857 25.6174C48.4905 25.1284 48.024 24.8125 47.4974 24.8125H44.5037C43.9771 24.8125 43.5107 25.1284 43.3153 25.6172L42.4657 27.7413H42.05C41.7438 27.7413 41.4637 27.8823 41.2813 28.1282C41.099 28.3741 41.0454 28.6831 41.1343 28.9761L42.3023 32.8244C42.4256 33.2305 42.7935 33.5034 43.218 33.5034ZM42.0344 28.6866C42.0485 28.6674 44.584 28.6849 44.6022 28.6788C44.861 28.6788 45.0709 28.4689 45.0709 28.21C45.0709 27.9511 44.861 27.7413 44.6022 27.7413H43.4754L44.1858 25.9653C44.238 25.8345 44.3628 25.75 44.5037 25.75H47.4974C47.6383 25.75 47.763 25.8345 47.8153 25.9654L48.5257 27.7413H46.7896C46.5307 27.7413 46.3208 27.9511 46.3208 28.21C46.3208 28.4689 46.5307 28.6788 46.7896 28.6788C46.8053 28.6788 49.9547 28.6704 49.9667 28.6866C49.9806 28.7054 48.8016 32.5324 48.8016 32.5522C48.8016 32.5938 43.2019 32.5604 43.1994 32.5522C43.1935 32.5325 42.0205 28.7053 42.0344 28.6866ZM41.7492 48.9336C41.4903 48.9336 41.2804 49.1434 41.2804 49.4023C41.2804 49.6612 41.4903 49.8711 41.7492 49.8711H50.0621C50.321 49.8711 50.5308 49.6612 50.5308 49.4023C50.5308 49.1434 50.321 48.9336 50.0621 48.9336H41.7492ZM54.2808 47.5273C54.2808 47.2684 54.071 47.0586 53.8121 47.0586H41.7492C41.4903 47.0586 41.2804 47.2684 41.2804 47.5273C41.2804 47.7862 41.4903 47.9961 41.7492 47.9961H53.8121C54.071 47.9961 54.2808 47.7862 54.2808 47.5273ZM56.6246 42.5191C56.8835 42.5191 57.0933 42.3092 57.0933 42.0504V24.3438C57.0933 23.0514 56.042 22 54.7496 22H37.2515C35.9591 22 34.9077 23.0514 34.9077 24.3438V51.6562C34.9077 52.9486 35.9591 54 37.2515 54H54.7497C56.042 54 57.0934 52.9486 57.0934 51.6562V44.2379C57.0934 43.979 56.8836 43.7691 56.6247 43.7691C56.3657 43.7691 56.1559 43.979 56.1559 44.2379V51.6562C56.1559 52.4317 55.525 53.0625 54.7497 53.0625H37.2515C36.476 53.0625 35.8452 52.4317 35.8452 51.6562V24.3438C35.8452 23.5683 36.476 22.9375 37.2515 22.9375H54.7497C55.525 22.9375 56.1559 23.5683 56.1559 24.3438V42.0504C56.1558 42.3092 56.3657 42.5191 56.6246 42.5191ZM39.896 44.6168C39.6652 44.6197 39.4232 44.6219 39.2013 44.6231C39.3589 44.4091 39.5583 44.133 39.8068 43.7778C40.0248 43.4664 40.1791 43.1844 40.2193 42.8915C40.2258 42.8435 40.2385 42.7573 40.2385 42.7115C40.2385 42.0131 39.6703 41.4449 38.9718 41.4449C38.368 41.4449 37.8453 41.8746 37.729 42.4665C37.6791 42.7205 37.8445 42.9669 38.0986 43.0168C38.3527 43.0667 38.599 42.9013 38.6489 42.6472C38.679 42.4937 38.8148 42.3824 38.9718 42.3824C39.1455 42.3824 39.2882 42.5175 39.3002 42.6881C39.312 42.8566 39.2261 42.9726 39.0388 43.2402C38.5463 43.9439 38.2525 44.3286 38.0947 44.5352C37.8191 44.8961 37.6874 45.3663 38.1647 45.5254C38.2263 45.5459 39.4637 45.5599 39.9078 45.5543C40.1667 45.551 40.3738 45.3385 40.3706 45.0796C40.3673 44.8207 40.1527 44.6118 39.896 44.6168ZM53.8121 41.4448H41.7492C41.4903 41.4448 41.2804 41.6547 41.2804 41.9136C41.2804 42.1724 41.4903 42.3823 41.7492 42.3823H53.8121C54.071 42.3823 54.2808 42.1724 54.2808 41.9136C54.2808 41.6547 54.071 41.4448 53.8121 41.4448ZM39.0454 47.0586C38.4415 47.0586 37.9188 47.4882 37.8025 48.0802C37.7527 48.3342 37.9181 48.5806 38.1722 48.6305C38.426 48.6803 38.6725 48.5149 38.7225 48.2609C38.7526 48.1074 38.8884 47.9961 39.0454 47.9961C39.2269 47.9961 39.3745 48.1437 39.3745 48.3252C39.3745 48.5067 39.2269 48.6543 39.0454 48.6543C38.7865 48.6543 38.5767 48.8642 38.5767 49.1231C38.5767 49.3819 38.7865 49.5918 39.0454 49.5918C39.2269 49.5918 39.3745 49.7394 39.3745 49.9209C39.3745 50.1024 39.2269 50.2501 39.0454 50.2501C38.8821 50.2501 38.742 50.1286 38.7195 49.9672C38.7173 49.9521 38.7163 49.9365 38.7163 49.9209C38.7163 49.6621 38.5064 49.4522 38.2475 49.4522C37.9887 49.4522 37.7788 49.6621 37.7788 49.9209C37.7788 50.6094 38.3501 51.1876 39.0454 51.1876C39.7438 51.1876 40.312 50.6194 40.312 49.9209C40.312 49.6187 40.2053 49.3411 40.0279 49.1231C40.2053 48.9051 40.312 48.6274 40.312 48.3252C40.312 47.6268 39.7438 47.0586 39.0454 47.0586ZM39.0454 39.9111C39.3043 39.9111 39.5142 39.7013 39.5142 39.4424V36.3243C39.5142 36.0654 39.3043 35.8555 39.0454 35.8555H38.3789C38.12 35.8555 37.9102 36.0654 37.9102 36.3243C37.9102 36.5831 38.12 36.793 38.3789 36.793H38.5767V39.4424C38.5767 39.7013 38.7865 39.9111 39.0454 39.9111ZM41.7492 38.668H50.0621C50.321 38.668 50.5308 38.4581 50.5308 38.1992C50.5308 37.9404 50.321 37.7305 50.0621 37.7305H41.7492C41.4903 37.7305 41.2804 37.9404 41.2804 38.1992C41.2804 38.4581 41.4903 38.668 41.7492 38.668ZM53.8121 35.8555H41.7492C41.4903 35.8555 41.2804 36.0654 41.2804 36.3243C41.2804 36.5831 41.4903 36.793 41.7492 36.793H53.8121C54.071 36.793 54.2808 36.5831 54.2808 36.3243C54.2808 36.0654 54.071 35.8555 53.8121 35.8555Z" fill="#08090D"/>
<defs>
<filter id="filter0_d_0_1" x="0" y="0" width="92" height="92" filterUnits="userSpaceOnUse" color-interpolation-filters="sRGB">
<feFlood flood-opacity="0" result="BackgroundImageFix"/>
<feColorMatrix in="SourceAlpha" type="matrix" values="0 0 0 0 0 0 0 0 0 0 0 0 0 0 0 0 0 0 127 0" result="hardAlpha"/>
<feOffset dy="8"/>
<feGaussianBlur stdDeviation="8"/>
<feColorMatrix type="matrix" values="0 0 0 0 0 0 0 0 0 0 0 0 0 0 0 0 0 0 0.04 0"/>
<feBlend mode="normal" in2="BackgroundImageFix" result="effect1_dropShadow_0_1"/>
<feBlend mode="normal" in="SourceGraphic" in2="effect1_dropShadow_0_1" result="shape"/>
</filter>
</defs>
</svg>
