<svg width="40" height="40" viewBox="0 0 40 40" fill="none" xmlns="http://www.w3.org/2000/svg">
<rect x="0.5" y="0.5" width="39" height="39" rx="11.5" stroke="#FBE9C7"/>
<path fill-rule="evenodd" clip-rule="evenodd" d="M24.9394 11C26.2804 11 27.5704 11.53 28.5194 12.481C29.4694 13.43 30.0004 14.71 30.0004 16.05V23.95C30.0004 26.74 27.7304 29 24.9394 29H15.0604C12.2694 29 10.0004 26.74 10.0004 23.95V16.05C10.0004 13.26 12.2594 11 15.0604 11H24.9394ZM26.5303 17.5403L26.6103 17.4603C26.8493 17.1703 26.8493 16.7503 26.5993 16.4603C26.4603 16.3113 26.2693 16.2203 26.0703 16.2003C25.8603 16.1893 25.6603 16.2603 25.5093 16.4003L21.0003 20.0003C20.4203 20.4813 19.5893 20.4813 19.0003 20.0003L14.5003 16.4003C14.1893 16.1703 13.7593 16.2003 13.5003 16.4703C13.2303 16.7403 13.2003 17.1703 13.4293 17.4703L13.5603 17.6003L18.1103 21.1503C18.6703 21.5903 19.3493 21.8303 20.0603 21.8303C20.7693 21.8303 21.4603 21.5903 22.0193 21.1503L26.5303 17.5403Z" fill="#F2BD57"/>
</svg>
