<svg width="92" height="92" viewBox="0 0 92 92" fill="none" xmlns="http://www.w3.org/2000/svg">
<g filter="url(#filter0_d_0_1)">
<circle cx="46" cy="38" r="30" fill="#FBE9C7"/>
</g>
<path d="M60.3017 31.8734H54.8751C53.9387 31.8734 53.1768 32.6356 53.1768 33.5726V39.8185H51.1471C51.2599 39.4084 51.3017 38.9248 51.2743 38.3619V38.3618C51.2302 35.9831 50.7986 33.9784 49.9912 32.4032C49.3644 31.1803 48.6328 30.4471 48.0051 30.0088C48.7419 29.2513 49.1679 28.1736 49.1679 26.9306C49.1679 24.6943 47.3839 22.875 45.1913 22.875C42.9986 22.875 41.2146 24.6943 41.2146 26.9306C41.2146 27.1896 41.4245 27.3994 41.6834 27.3994H42.0019C41.9726 27.5763 41.9569 27.7565 41.9569 27.9396C41.9569 29.5156 43.0831 30.8327 44.5719 31.1279C44.4159 31.7074 44.3383 32.3907 44.3386 33.167L43.1695 34.1726L40.3248 34.4026L37.0434 33.3179C36.7426 33.2179 36.4018 33.1049 36.106 33.3181C35.8146 33.5284 35.8146 33.8966 35.8146 34.0176V36.4572C35.8146 36.7162 36.0244 36.926 36.2833 36.926H36.8414L35.9854 39.8838C35.9135 40.1324 36.0568 40.3924 36.3054 40.4643C36.5543 40.5366 36.8141 40.393 36.8861 40.1444L37.8174 36.926H39.1501C37.4926 41.9805 38.4383 45.3544 39.892 48.7688H39.0494L35.5398 44.8447L36.2819 42.2809C36.3539 42.0322 36.2107 41.7723 35.962 41.7004C35.7133 41.6284 35.4534 41.7717 35.3814 42.0203L34.6716 44.4726C32.4762 44.436 30.5124 45.9496 30.012 48.1273C29.9541 48.3796 30.1115 48.6311 30.3637 48.6891L31.0291 48.8422C30.8591 50.6079 32.0219 52.2739 33.7953 52.6821C34.0646 52.7441 34.3363 52.7747 34.606 52.7747C35.2713 52.7747 35.9248 52.5882 36.5029 52.2259C37.1813 51.8008 37.6868 51.1758 37.9604 50.4372L38.4854 50.558C38.6419 50.5942 38.7903 50.6125 38.9385 50.5327C39.0764 50.4584 39.1681 50.3244 39.2025 50.1731C39.2355 50.0196 39.2606 49.8637 39.2781 49.7063H49.0817C49.3952 51.6555 51.0536 53.1248 53.0343 53.1248C55.015 53.1248 56.6735 51.6555 56.987 49.7063H57.3447C57.3447 49.7063 57.4158 49.7071 57.4319 49.7071C57.566 49.7071 57.7596 49.6923 57.9186 49.5305C57.9982 49.4496 58.0916 49.3048 58.0844 49.0747C58.0712 48.6345 58.0051 48.2092 57.8924 47.8049C58.2658 45.5382 57.9065 44.1576 57.3739 43.0772C57.7106 42.8565 57.9339 42.4762 57.9339 42.0443V40.7559H60.3016C61.238 40.7559 61.9999 39.9937 61.9999 39.0567V33.5726C62 32.6356 61.2382 31.8734 60.3017 31.8734ZM36.0051 51.4317C35.405 51.8078 34.695 51.9273 34.0058 51.7686H34.0057C32.7371 51.4766 31.8907 50.3133 31.9524 49.0554L37.0369 50.2257C36.8266 50.721 36.4706 51.1399 36.0051 51.4317ZM38.3506 49.5651L31.059 47.8872C31.6217 46.3463 33.1359 45.3263 34.7911 45.4141L38.3631 49.4079C38.3599 49.4606 38.3558 49.5129 38.3506 49.5651ZM45.4309 41.3966C45.2948 41.7555 45.2948 42.1979 45.2948 42.8104V44.5793H43.5784V42.1525C43.5784 39.4089 45.0758 38.9199 45.7478 38.8393H50.3433C50.3248 39.4619 50.1843 39.9046 49.9176 40.1855C49.6067 40.5129 49.0748 40.6724 48.2913 40.6731L46.6087 40.6749C46.0087 40.6749 45.6124 40.9177 45.4309 41.3966ZM45.2948 45.5167V46.6359C45.2906 46.6359 45.2862 46.6359 45.2817 46.6359H41.9521C41.9896 46.2888 42.0977 46.0202 42.2753 45.8343C42.5394 45.5579 42.9114 45.5167 43.1096 45.5167H45.2948ZM50.3226 37.9018H46.0597C45.8885 37.3631 45.7359 36.7732 45.6104 36.167L46.9064 35.3258C47.6139 34.8663 47.982 34.2171 47.9163 33.5446C47.858 32.9484 47.4527 32.4158 46.8837 32.1879C46.3641 31.9797 45.8048 32.0451 45.3104 32.3612C45.3512 31.9128 45.4271 31.5126 45.5368 31.1728C45.7366 31.1522 45.9351 31.1131 46.1299 31.0558C46.5266 30.9637 46.8932 30.8169 47.2241 30.6222C48.1269 31.1616 50.1126 32.9111 50.3226 37.9018ZM42.1864 26.4619C42.4075 24.9642 43.6708 23.8126 45.1913 23.8126C46.867 23.8126 48.2304 25.2114 48.2304 26.9307C48.2304 28.3291 47.5598 29.4561 46.4786 29.9521V27.4857C46.4786 27.0586 46.3151 26.5347 45.5368 26.4639C45.5226 26.4626 45.5084 26.4619 45.4943 26.4619H42.1864ZM42.8945 27.9396C42.8945 27.7546 42.9156 27.5739 42.957 27.3994H45.4713C45.5002 27.4026 45.5213 27.4059 45.5364 27.409C45.5389 27.4264 45.541 27.4514 45.541 27.4857V30.2279C45.4293 30.2444 45.3169 30.2527 45.2046 30.2528C45.2036 30.2528 45.2025 30.2528 45.2015 30.2528C43.9293 30.2516 42.8945 29.2144 42.8945 27.9396ZM42.2868 35.1846L43.3971 35.0948C43.496 35.0869 43.5898 35.0477 43.6651 34.983L45.6689 33.2596L45.6692 33.2592C45.8629 33.0923 46.0698 33.0067 46.2711 33.0067C46.3608 33.0067 46.4493 33.0237 46.5351 33.0581C46.7828 33.1573 46.9587 33.384 46.9833 33.6356C47.0142 33.9523 46.8056 34.2733 46.3961 34.5393L44.1633 35.9886H42.2869V35.1846H42.2868ZM40.3058 35.3449L41.3493 35.2605V35.9887H40.1368C39.9796 35.9887 39.9413 35.8581 39.9368 35.7485C39.9342 35.6864 39.9401 35.3749 40.3058 35.3449ZM39.1964 35.0212C39.0552 35.2527 38.9893 35.5236 39.0001 35.7869C39.0029 35.8551 39.0116 35.9207 39.0237 35.9847C39.0237 35.9861 39.0229 35.9874 39.0232 35.9886H36.7522V34.2091L39.1982 35.0176C39.1974 35.0189 39.1971 35.0201 39.1964 35.0212ZM40.1394 36.9261H44.3019C44.3925 36.9261 44.4812 36.8999 44.5571 36.8506L44.7693 36.7128C44.8714 37.1639 44.9876 37.6029 45.1143 38.0176C44.1583 38.2998 42.6408 39.2117 42.6408 42.1524V44.6262C42.3119 44.6926 41.9229 44.846 41.5974 45.1866C41.2544 45.5456 41.0584 46.032 41.0114 46.6359H40.0658C39.1129 43.8898 38.7506 40.9675 40.1394 36.9261ZM40.912 48.7673C40.7388 48.3688 40.5718 47.9719 40.4145 47.5734H45.2816C45.9124 47.5734 46.2323 47.2863 46.2323 46.7199V45.0479V43.2791H49.9322C50.1911 43.2791 50.4009 43.0693 50.4009 42.8103C50.4009 42.5514 50.1911 42.3416 49.9322 42.3416H46.2356C46.2416 42.0753 46.2587 41.8576 46.3075 41.7289C46.3312 41.6664 46.3517 41.6124 46.6091 41.6124L48.2921 41.6106C49.3462 41.6096 50.1003 41.3546 50.5974 40.831C50.6204 40.8067 50.6422 40.7813 50.664 40.756H53.6456H56.9966V42.0443C56.9966 42.2054 56.8608 42.3416 56.7 42.3416H52.0334C51.7745 42.3416 51.5647 42.5514 51.5647 42.8103C51.5647 43.0693 51.7745 43.2791 52.0334 43.2791H56.4246C56.7951 43.9667 57.1283 44.8224 57.1085 46.1744C56.1811 44.8862 54.6798 44.0579 52.9759 44.0579C51.6076 44.0579 50.3236 44.5946 49.3604 45.5693C48.5057 46.4341 47.9924 47.5566 47.8867 48.7688L40.912 48.7673ZM53.0344 52.1874C51.569 52.1874 50.3331 51.1316 50.0341 49.7064H56.0346C55.7356 51.1315 54.4997 52.1874 53.0344 52.1874ZM56.5671 48.7689H49.5018H48.8283C49.0584 46.6494 50.8307 44.9954 52.9759 44.9954C54.8594 44.9954 56.4411 46.2373 56.9649 47.9759C56.9666 47.9814 56.9683 47.9869 56.9701 47.9923C57.0442 48.2418 57.0965 48.5014 57.1248 48.7689H56.5671ZM61.0625 39.0567C61.0625 39.4768 60.7212 39.8185 60.3017 39.8185H54.1143V37.3978H61.0625V39.0567ZM61.0625 36.4603H54.1143V35.4634H61.0625V36.4603ZM61.0625 34.5259H54.1143V33.5726C54.1143 33.1526 54.4556 32.8109 54.8751 32.8109H60.3017C60.7212 32.8109 61.0625 33.1526 61.0625 33.5726V34.5259Z" fill="#08090D"/>
<defs>
<filter id="filter0_d_0_1" x="0" y="0" width="92" height="92" filterUnits="userSpaceOnUse" color-interpolation-filters="sRGB">
<feFlood flood-opacity="0" result="BackgroundImageFix"/>
<feColorMatrix in="SourceAlpha" type="matrix" values="0 0 0 0 0 0 0 0 0 0 0 0 0 0 0 0 0 0 127 0" result="hardAlpha"/>
<feOffset dy="8"/>
<feGaussianBlur stdDeviation="8"/>
<feColorMatrix type="matrix" values="0 0 0 0 0 0 0 0 0 0 0 0 0 0 0 0 0 0 0.04 0"/>
<feBlend mode="normal" in2="BackgroundImageFix" result="effect1_dropShadow_0_1"/>
<feBlend mode="normal" in="SourceGraphic" in2="effect1_dropShadow_0_1" result="shape"/>
</filter>
</defs>
</svg>
