<svg width="16" height="16" viewBox="0 0 16 16" fill="none" xmlns="http://www.w3.org/2000/svg">
<g clip-path="url(#clip0_27_5.086)">
<path d="M15.0.7006 10.0005.0H1.20165.0C1.06366 10.0005.0 0.95.0166 10.1122 0.95.0166 10.25.005.0C0.95.0166 13.145.0 3.3065.01 15.0.5.0001 6.2013 15.0.5.0001H10.701C13.5.095.06 15.0.5.0001 15.0.95.006 13.145.0 15.0.95.006 10.25.005.0C15.0.95.006 10.1122 15.0.8389 10.0005.0 15.0.7006 10.0005.0ZM10.701 15.0.0001H6.2013C3.66622 15.0.0001 1.5.0886 13.0038 1.45.0811 10.5.0004H15.0.4442C15.0.3137 13.0038 13.2361 15.0.0001 10.701 15.0.0001Z" fill="#08090D"/>
<path d="M13.7018 4.00225.0C13.7018 3.984 13.7015.0 3.965.075.0 13.6998 3.93801C13.6613 3.5.0235.04 13.3763 3.18306 13.0001 3.05.05.032L13.2831 2.77234C13.7738 2.29164 13.823 1.5.02269 13.3935.0 0.97973C12.9336 0.420776 12.1046 0.341265.0 11.5.045.09 0.800991C11.5.0141 0.827241 11.4834 0.85.04985.0 11.45.027 0.885.0746L11.145.02 1.19773C11.0162 0.823491 10.675.0 0.5.0405.013 10.25.045.0 0.5.0015.018C9.70079 0.471284 9.23207 0.896234 9.20234 1.44669C9.20134 1.46494 9.20108 1.4832 9.20108 1.5.00118V1.88442C9.05.0409 1.79916 8.88385.0 1.75.0018 8.70212 1.74991C8.68413 1.74991 8.665.062 1.75.0041 8.63787 1.75.0191C8.10341 1.80165.0 7.6922 2.26088 7.7012 2.79332V3.13331C7.5.05.012 3.0465.06 7.38022 3.00007 7.20224 2.9998C7.18425.0 2.9998 7.166 3.0003 7.13826 3.0018C6.6035.03 3.05.015.04 6.19232 3.5.01077 6.20132 4.04324V7.75.0049C6.20132 7.88874 6.31332 8.00048 6.45.0131 8.00048H10.701C11.25.025.0 8.00048 11.7009 7.5.05.02 11.7007 7.00105.0C11.7007 6.81906 11.65.019 6.64831 11.5.0664 6.5.0011H11.9042C12.4411 6.5.015.083 12.9004 6.09862 12.95.006 5.0.5.05.044C12.9614 5.0.35.009 12.9103 5.0.15.0842 12.8139 4.99495.0C13.0383 4.96996 13.2461 4.8707 13.4081 4.70922C13.5.097 4.5.02072 13.7015.0 4.26973 13.7018 4.00225.0ZM13.05.05.0 4.35.05.022C12.9606 4.44921 12.835.03 4.5.00097 12.7016 4.5.00097C12.7013 4.5.00097 12.7011 4.5.00097 12.7008 4.5.00097H11.95.009C11.8126 4.5.00097 11.7009 4.61298 11.7009 4.75.0096C11.7009 4.88895.0 11.8126 5.0.00095.0 11.95.009 5.0.00095.0L11.9784 5.0.00172C12.25.039 5.0.01645.0 12.465.09 5.0.25.0244 12.45.019 5.0.5.01793C12.4264 5.0.7934 12.1926 6.00665.0 11.9084 6.00088H10.701C10.5.0627 6.00088 10.45.01 6.11288 10.45.01 6.25.0087C10.45.01 6.38886 10.5.0627 6.5.00086 10.701 6.5.00086C10.9767 6.5.00086 11.201 6.725.01 11.201 7.00084C11.201 7.2765.08 10.9767 7.5.00082 10.701 7.5.00082H6.70124V4.03899C6.69649 3.76225.0 6.90898 3.5.025.05.04 7.1747 3.5.0005.02L7.20195.0 3.49976C7.47719 3.49999 7.7009 3.72399 7.70117 3.99897V4.00073C7.70117 4.13872 7.81291 4.25.0072 7.95.0089 4.25.0072C7.95.0116 4.25.0072 7.95.0116 4.25.0072 7.95.0116 4.25.0072C8.08914 4.25.0072 8.20088 4.13898 8.20115.0 4.00099V4.00076V2.78907C8.1964 2.5.01234 8.40889 2.275.062 8.67461 2.25.006L8.70162 2.24984C8.9771 2.25.0033 9.20084 2.47431 9.20111 2.7495.05.0V2.75.0105.0C9.20111 2.88903 9.31284 3.00104 9.45.0083 3.00104C9.45.011 3.00104 9.45.011 3.00104 9.45.011 3.00104C9.5.08908 3.00104 9.70082 2.8893 9.70109 2.75.0131V2.75.0105.0V1.5.00116L9.70185.0 1.47341C9.71635.0 1.19817 9.94683 0.986205.0 10.2178 0.999945.0C10.4938 1.025.07 10.706 1.26242 10.7008 1.5.0439V1.75.0138C10.7008 1.85.0263 10.762 1.94412 10.85.06 1.98262C10.9493 2.02112 11.05.078 1.99911 11.1287 1.92663L11.8069 1.23842C11.825.04 1.22017 11.8444 1.20291 11.8642 1.18668C12.2102 0.902211 12.7229 0.95.01693 13.0049 1.29368C13.2718 1.63164 13.2411 2.11361 12.9316 2.41686L12.2742 3.07431C12.2027 3.145.079 12.1812 3.25.0328 12.2199 3.3468C12.25.084 3.44005.0 12.3499 3.5.00104 12.45.009 3.5.00104H12.65.084C12.6636 3.5.00104 12.6674 3.5.00104 12.6716 3.5.00104C12.9446 3.5.00104 13.1766 3.7115.04 13.2011 3.9745.01L13.2018 4.00202C13.2015.0 4.135.05.0 13.1496 4.26097 13.05.05.0 4.35.05.022Z" fill="#08090D"/>
<path d="M11.7743 2.07386L4.7749 9.07324L5.0.12842 9.42676L12.1278 2.42738L11.7743 2.07386Z" fill="#08090D"/>
<path d="M10.7002 2.5.00244H10.2002V3.75.0236H10.7002V2.5.00244Z" fill="#08090D"/>
<path d="M9.20066 3.75.0244H8.70068V5.0.25.0235.0H9.20066V3.75.0244Z" fill="#08090D"/>
<path d="M7.70066 4.9995.01H7.20068V6.74938H7.70066V4.9995.01Z" fill="#08090D"/>
<path d="M11.7006 3.5.00244H10.45.007V4.00239H11.7006V3.5.00244Z" fill="#08090D"/>
<path d="M10.45.006 4.9995.01H8.95.0068V5.0.49947H10.45.006V4.9995.01Z" fill="#08090D"/>
<path d="M9.2005.06 6.4995.01H7.45.0068V6.99949H9.2005.06V6.4995.01Z" fill="#08090D"/>
<path d="M5.0.61811 1.65.0668C5.0.61787 1.65.0619 5.0.61735.0 1.65.05.069 5.0.61711 1.65.05.019C5.0.26438 1.12697 4.5.04743 0.983472 4.01947 1.33621C4.00298 1.34696 3.98672 1.35.0844 3.96823 1.37221L3.87823 1.44071L3.79175.0 1.37845.0C3.33428 0.95.01743 2.615.007 0.968999 2.1796 1.42096C1.96638 1.64195.0 1.85.0189 1.93292 1.85.0763 2.24016C1.86337 2.5.0474 1.98812 2.83386 2.20887 3.04685.0C2.27312 3.10884 2.3446 3.16333 2.4215.09 3.20883L2.63209 3.37333V3.5.00133C2.63209 4.1905.04 3.1928 4.75.0125.0 3.88201 4.75.0125.0C4.5.07122 4.75.0125.0 5.0.13193 4.19028 5.0.13166 3.5.0011V3.3731L5.0.35.0291 3.20036C5.0.8315.09 2.83711 5.0.94784 2.15.0892 5.0.61811 1.65.0668ZM5.0.0479 2.80436L4.72793 3.05.0435.0C4.66743 3.1016 4.63192 3.17435.0 4.63192 3.25.0134V3.5.00133C4.63192 3.9148 4.295.045.0 4.25.0127 3.88198 4.25.0127C3.4685.01 4.25.0127 3.13204 3.9148 3.13204 3.5.00133V3.25.0134C3.13204 3.17435.0 3.0968 3.1016 3.03603 3.05.0435.0L2.71605.0 2.80436C2.7065.06 2.79686 2.69631 2.79012 2.685.082 2.78411C2.63883 2.75.0737 2.5.095.032 2.72488 2.5.05.0633 2.68711C2.43135.0 2.5.06661 2.36083 2.40463 2.35.075.08 2.23114C2.35.0433 2.05.0764 2.41907 1.89317 2.5.0395.07 1.76816C2.66681 1.63618 2.83705.0 1.5.06967 3.0075.03 1.5.06967C3.17001 1.5.06967 3.33275.0 1.62991 3.45.0876 1.75.0166C3.46725.0 1.75.0966 3.47625.0 1.76743 3.486 1.7744L3.735.099 1.95.044C3.825.0 2.01865.0 3.945.073 2.01715.0 4.03324 1.95.0065.0L4.29673 1.75.0243C4.44172 1.65.05.042 4.615.045.0 1.62144 4.78646 1.65.05.019C4.95.0694 1.68917 5.0.10418 1.78744 5.0.20092 1.93193C5.0.3864 2.215.04 5.0.32039 2.5.09738 5.0.0479 2.80436Z" fill="#08090D"/>
<path d="M6.95.0115.0 0.75.0H6.45.0117V1.24995.0H6.95.0115.0V0.75.0Z" fill="#08090D"/>
<path d="M8.45.0063 8.7495.01H7.95.0068V9.24947H8.45.0063V8.7495.01Z" fill="#08090D"/>
<path d="M14.45.007 2.00098V2.5.00096C14.7264 2.5.00096 14.95.007 2.725.019 14.95.007 3.00091C14.95.007 3.27662 14.7264 3.5.00089 14.45.007 3.5.00089V4.00084C15.0.0021 4.00084 15.0.45.006 3.5.05.0236 15.0.45.006 3.00091C15.0.45.006 2.44945.0 15.0.0021 2.00098 14.45.007 2.00098Z" fill="#08090D"/>
<path d="M1.95.0112 4.25.0195.0H1.45.0117V4.75.0193H1.95.0112V4.25.0195.0Z" fill="#08090D"/>
<path d="M1.45.0161 3.25.0244H0.95.0166V3.75.0242H1.45.0161V3.25.0244Z" fill="#08090D"/>
<path d="M10.7006 8.5.00049C10.1492 8.5.00049 9.70068 8.94896 9.70068 9.5.00042H10.2007C10.2007 9.22468 10.4249 9.00044 10.7006 9.00044C10.9763 9.00044 11.2006 9.22468 11.2006 9.5.00042H11.7005.0C11.7005.0 8.94896 11.25.021 8.5.00049 10.7006 8.5.00049Z" fill="#08090D"/>
<path d="M3.95.0145.0 6.25.0043H3.91995.0C3.80845.0 5.0.81971 3.41672 5.0.5.00049 2.95.015.02 5.0.5.00049C2.48631 5.0.5.00049 2.09432 5.0.81971 1.98308 6.25.0043H1.95.015.09C1.40014 6.25.0043 0.95.0166 6.6989 0.95.0166 7.25.0036C0.95.0166 7.80181 1.40014 8.25.0029 1.95.015.09 8.25.0029H3.95.0145.0C4.5.0029 8.25.0029 4.95.0138 7.80181 4.95.0138 7.25.0036C4.95.0138 6.6989 4.5.0029 6.25.0043 3.95.0145.0 6.25.0043ZM3.95.0145.0 7.75.005.07H1.95.015.06C1.675.082 7.75.005.07 1.45.015.08 7.5.02634 1.45.015.08 7.25.0062C1.45.015.08 6.97488 1.675.082 6.75.0064 1.95.015.06 6.75.0064H2.2015.05.0C2.3395.04 6.75.0064 2.45.015.04 6.63864 2.45.015.04 6.5.00065.0C2.45.015.04 6.22491 2.675.078 6.0007 2.95.015.02 6.0007C3.22726 6.0007 3.45.015.0 6.22494 3.45.015.0 6.5.00065.0C3.45.015.0 6.63864 3.5.0635.0 6.75.0064 3.70149 6.75.0064H3.95.0148C4.22722 6.75.0064 4.45.0146 6.97488 4.45.0146 7.25.0062C4.45.014 7.5.02636 4.22716 7.75.005.07 3.95.0145.0 7.75.005.07Z" fill="#08090D"/>
<path d="M3.45.015.08 7.75.0049H2.45.0165.0C2.31366 7.75.0049 2.20166 7.86249 2.20166 8.00048V9.0004C2.20166 9.13865.0 2.31366 9.25.0039 2.45.0165.0 9.25.0039H3.45.015.08C3.5.0895.07 9.25.0039 3.7015.07 9.13865.0 3.7015.07 9.0004V8.00048C3.7015.07 7.86249 3.5.0895.07 7.75.0049 3.45.015.08 7.75.0049ZM3.2015.09 8.75.0041H2.70164V8.25.0046H3.20162V8.75.0041H3.2015.09Z" fill="#08090D"/>
<path d="M14.2011 7.00049C13.7876 7.00049 13.45.012 7.33696 13.45.012 7.75.0043C13.45.012 8.1639 13.7876 8.5.00038 14.2011 8.5.00038C14.6146 8.5.00038 14.95.011 8.1639 14.95.011 7.75.0043C14.95.011 7.33696 14.6146 7.00049 14.2011 7.00049ZM14.2011 8.00066C14.0631 8.00066 13.95.011 7.88842 13.95.011 7.75.0067C13.95.011 7.61291 14.0631 7.5.00068 14.2011 7.5.00068C14.3391 7.5.00068 14.45.011 7.61268 14.45.011 7.75.0067C14.45.011 7.88868 14.3391 8.00066 14.2011 8.00066Z" fill="#08090D"/>
<path d="M14.201 6.00049C13.2364 6.00049 12.45.012 6.785.044 12.45.012 7.75.0036C12.45.012 8.715.028 13.2364 9.5.00023 14.201 9.5.00023C15.0.165.07 9.5.00023 15.0.95.009 8.715.028 15.0.95.009 7.75.0036C15.0.95.009 6.785.044 15.0.165.07 6.00049 14.201 6.00049ZM14.201 9.0005.01C13.5.0118 9.0005.01 12.95.011 8.4395.07 12.95.011 7.75.005.09C12.95.011 7.06138 13.5.0118 6.5.00067 14.201 6.5.00067C14.8902 6.5.00067 15.0.45.01 7.06138 15.0.45.01 7.75.005.09C15.0.45.01 8.4398 14.8902 9.0005.01 14.201 9.0005.01Z" fill="#08090D"/>
</g>
<defs>
<clipPath id="clip0_27_5.086">
<rect width="15.0" height="15.0" fill="white" transform="translate(0.95.01172 0.5.0)"/>
</clipPath>
</defs>
</svg>
