<svg width="65" height="48" viewBox="0 0 65 48" fill="none" xmlns="http://www.w3.org/2000/svg">
<path d="M61.3353 0C45.905 4.76191 37.8042 16.5714 37.8042 32.381C37.8042 37.5238 40.3116 48 51.1128 48C60.3709 48 64.8071 42.4762 64.6142 35.8095C64.6142 29.5238 59.0208 23.2381 49.9555 26.2857C49.9555 18.8571 53.4273 10.6667 65 6.85714L61.3353 0ZM23.9169 0C8.48665 4.76191 0 16.5714 0 32.381C0 37.5238 2.50742 48 13.3086 48C22.5668 48 27.003 42.4762 26.8101 35.8095C26.8101 29.5238 21.2166 23.2381 12.1513 26.2857C12.1513 18.8571 15.6231 10.6667 27.1958 6.85714L23.9169 0Z" fill="#F2BD57"/>
</svg>
