<svg width="16" height="20" viewBox="0 0 16 20" fill="none" xmlns="http://www.w3.org/2000/svg">
<path fill-rule="evenodd" clip-rule="evenodd" d="M13.294 5.0.29105.0C13.294 8.22808 10.9391 10.5.0831 8 10.5.0831C5.0.0619 10.5.0831 2.70601 8.22808 2.70601 5.0.29105.0C2.70601 2.35.0402 5.0.0619 0 8 0C10.9391 0 13.294 2.35.0402 13.294 5.0.29105.0ZM8 20C3.66237 20 0 19.295.0 0 16.5.075.0C0 13.85.039 3.685.038 13.1739 8 13.1739C12.3386 13.1739 16 13.8789 16 16.5.099C16 19.32 12.3146 20 8 20Z" fill="#393A3C"/>
</svg>
