<svg width="208" height="40" viewBox="0 0 208 40" fill="none" xmlns="http://www.w3.org/2000/svg">
<rect x="112" width="40" height="40" rx="12" fill="#F2BD57"/>
<rect x="120" y="8" width="24" height="24" rx="8" fill="#F2BD57"/>
<path d="M126.599 16.0113C126.131 16.0113 125.747 15.8661 125.448 15.5758C125.149 15.2793 125 14.9179 125 14.4917C125 14.0532 125.149 13.6949 125.448 13.4169C125.747 13.139 126.131 13 126.599 13C127.074 13 127.458 13.139 127.751 13.4169C128.05 13.6949 128.199 14.0532 128.199 14.4917C128.199 14.9365 128.05 15.3009 127.751 15.585C127.458 15.8692 127.074 16.0113 126.599 16.0113ZM127.97 27H125.193V17.5122H127.97V27Z" fill="#08090D"/>
<path d="M139 27H136.232V21.728C136.232 20.2579 135.734 19.5228 134.738 19.5228C134.257 19.5228 133.862 19.7174 133.551 20.1066C133.241 20.4957 133.085 20.9899 133.085 21.589V27H130.308V17.5122H133.085V19.0132H133.121C133.783 17.8582 134.746 17.2806 136.012 17.2806C138.004 17.2806 139 18.5839 139 21.1906V27Z" fill="#08090D"/>
<rect x="168" width="40" height="40" rx="12" fill="#F2BD57"/>
<rect x="176" y="8" width="24" height="24" rx="8" fill="#F2BD57"/>
<g clip-path="url(#clip0_27_845)">
<path d="M187.999 17.5003C187.336 17.5003 186.7 17.7637 186.232 18.2326C185.763 18.7014 185.499 19.3373 185.499 20.0003C185.499 20.6634 185.763 21.2993 186.232 21.7681C186.7 22.2369 187.336 22.5003 187.999 22.5003C188.662 22.5003 189.298 22.2369 189.767 21.7681C190.236 21.2993 190.499 20.6634 190.499 20.0003C190.499 19.3373 190.236 18.7014 189.767 18.2326C189.298 17.7637 188.662 17.5003 187.999 17.5003ZM187.999 15.8337C189.104 15.8337 190.164 16.2726 190.946 17.054C191.727 17.8354 192.166 18.8953 192.166 20.0003C192.166 21.1054 191.727 22.1652 190.946 22.9466C190.164 23.728 189.104 24.167 187.999 24.167C186.894 24.167 185.834 23.728 185.053 22.9466C184.272 22.1652 183.833 21.1054 183.833 20.0003C183.833 18.8953 184.272 17.8354 185.053 17.054C185.834 16.2726 186.894 15.8337 187.999 15.8337ZM193.416 15.6253C193.416 15.9016 193.306 16.1665 193.111 16.3619C192.916 16.5572 192.651 16.667 192.374 16.667C192.098 16.667 191.833 16.5572 191.638 16.3619C191.442 16.1665 191.333 15.9016 191.333 15.6253C191.333 15.3491 191.442 15.0841 191.638 14.8888C191.833 14.6934 192.098 14.5837 192.374 14.5837C192.651 14.5837 192.916 14.6934 193.111 14.8888C193.306 15.0841 193.416 15.3491 193.416 15.6253ZM187.999 13.3337C185.938 13.3337 185.601 13.3395 184.642 13.382C183.989 13.4128 183.55 13.5003 183.144 13.6587C182.782 13.7987 182.521 13.9662 182.244 14.2445C181.983 14.4965 181.782 14.8041 181.657 15.1445C181.499 15.5528 181.411 15.9903 181.381 16.6428C181.338 17.5628 181.333 17.8845 181.333 20.0003C181.333 22.062 181.339 22.3987 181.381 23.3578C181.412 24.0103 181.499 24.4495 181.657 24.8553C181.799 25.2178 181.965 25.4787 182.242 25.7553C182.523 26.0353 182.784 26.2028 183.142 26.3412C183.554 26.5003 183.992 26.5887 184.642 26.6187C185.562 26.662 185.884 26.667 187.999 26.667C190.061 26.667 190.398 26.6612 191.357 26.6187C192.009 26.5878 192.448 26.5003 192.854 26.3428C193.215 26.202 193.478 26.0345 193.754 25.7578C194.035 25.477 194.203 25.2162 194.341 24.8578C194.499 24.447 194.588 24.0078 194.618 23.3578C194.661 22.4378 194.666 22.1162 194.666 20.0003C194.666 17.9387 194.66 17.602 194.618 16.6428C194.587 15.9912 194.499 15.5512 194.341 15.1445C194.215 14.8045 194.015 14.497 193.755 14.2445C193.503 13.9835 193.196 13.783 192.855 13.6578C192.447 13.4995 192.009 13.412 191.357 13.382C190.437 13.3387 190.115 13.3337 187.999 13.3337ZM187.999 11.667C190.264 11.667 190.546 11.6753 191.434 11.717C192.322 11.7587 192.926 11.8978 193.458 12.1045C194.008 12.3162 194.471 12.6028 194.934 13.0653C195.358 13.4819 195.686 13.9858 195.895 14.542C196.101 15.0728 196.241 15.6778 196.283 16.5653C196.322 17.4537 196.333 17.7362 196.333 20.0003C196.333 22.2645 196.324 22.547 196.283 23.4353C196.241 24.3228 196.101 24.927 195.895 25.4587C195.687 26.0151 195.359 26.5192 194.934 26.9353C194.518 27.3589 194.014 27.6868 193.458 27.8962C192.927 28.102 192.322 28.242 191.434 28.2837C190.546 28.3228 190.264 28.3337 187.999 28.3337C185.735 28.3337 185.453 28.3253 184.564 28.2837C183.677 28.242 183.073 28.102 182.541 27.8962C181.985 27.6874 181.481 27.3594 181.064 26.9353C180.641 26.5188 180.313 26.0149 180.104 25.4587C179.897 24.9278 179.758 24.3228 179.716 23.4353C179.677 22.547 179.666 22.2645 179.666 20.0003C179.666 17.7362 179.674 17.4537 179.716 16.5653C179.758 15.677 179.897 15.0737 180.104 14.542C180.312 13.9855 180.64 13.4814 181.064 13.0653C181.481 12.6414 181.985 12.3134 182.541 12.1045C183.073 11.8978 183.676 11.7587 184.564 11.717C185.453 11.6778 185.735 11.667 187.999 11.667Z" fill="#08090D"/>
</g>
<rect width="40" height="40" rx="12" fill="#F2BD57"/>
<rect x="8" y="8" width="24" height="24" rx="8" fill="#F2BD57"/>
<path d="M24.593 20.7811L25.125 17.3124H21.7969V15.0614C21.7969 14.1125 22.2618 13.1875 23.7524 13.1875H25.2656V10.2344C25.2656 10.2344 23.8924 10 22.5794 10C19.8384 10 18.0469 11.6612 18.0469 14.6687V17.3124H15V20.7811H18.0469V29.1665C18.6671 29.2637 19.294 29.3125 19.9219 29.3123C20.5597 29.3123 21.1859 29.2624 21.7969 29.1665V20.7811H24.593Z" fill="#08090D"/>
<rect x="56" width="40" height="40" rx="12" fill="#F2BD57"/>
<rect x="64" y="8" width="24" height="24" rx="8" fill="#F2BD57"/>
<g clip-path="url(#clip1_27_845)">
<path d="M84 15.039C83.405 15.3 82.771 15.473 82.11 15.557C82.79 15.151 83.309 14.513 83.553 13.744C82.919 14.122 82.219 14.389 81.473 14.538C80.871 13.897 80.013 13.5 79.077 13.5C77.261 13.5 75.799 14.974 75.799 16.781C75.799 17.041 75.821 17.291 75.875 17.529C73.148 17.396 70.735 16.089 69.114 14.098C68.831 14.589 68.665 15.151 68.665 15.756C68.665 16.892 69.25 17.899 70.122 18.482C69.595 18.472 69.078 18.319 68.64 18.078C68.64 18.088 68.64 18.101 68.64 18.114C68.64 19.708 69.777 21.032 71.268 21.337C71.001 21.41 70.71 21.445 70.408 21.445C70.198 21.445 69.986 21.433 69.787 21.389C70.212 22.688 71.418 23.643 72.852 23.674C71.736 24.547 70.319 25.073 68.785 25.073C68.516 25.073 68.258 25.061 68 25.028C69.453 25.965 71.175 26.5 73.032 26.5C79.068 26.5 82.368 21.5 82.368 17.166C82.368 17.021 82.363 16.881 82.356 16.742C83.007 16.28 83.554 15.703 84 15.039Z" fill="#08090D"/>
</g>
<defs>
<clipPath id="clip0_27_845">
<rect width="20" height="20" fill="white" transform="translate(178 10)"/>
</clipPath>
<clipPath id="clip1_27_845">
<rect width="16" height="16" fill="white" transform="translate(68 12)"/>
</clipPath>
</defs>
</svg>
