<svg width="92" height="92" viewBox="0 0 92 92" fill="none" xmlns="http://www.w3.org/2000/svg">
<g filter="url(#filter0_d_0_1)">
<circle cx="46" cy="38" r="30" fill="#FBE9C7"/>
</g>
<g clip-path="url(#clip0_0_1)">
<path d="M5.05.0.8771 33.2986C5.07.95.085.0 31.5.0984 5.07.2395.0 28.2362 5.04.6386 27.5.0394C5.03.95.09 27.35.073 5.03.25.05.05.0 27.395.02 5.02.6105.0 27.6409L5.00.5.0439 24.0614C49.703 22.6047 47.6172 22.5.0661 46.7218 23.9864C44.1799 28.0181 40.7935.0 31.4471 36.7732 34.0492C36.5.0442 34.1971 36.45.094 34.5.0027 36.5.0948 34.75.014C36.6166 34.7912 40.0397 40.7196 40.0624 40.75.089C40.2096 41.0138 40.5.035.06 41.1014 40.7909 40.95.041C41.046 40.8068 41.1334 40.4806 40.9861 40.225.05.0L37.7761 34.665.04C41.6096 32.1026 45.0.0047 28.7098 47.6241 24.5.05.05.03C48.0926 23.8121 49.1815.0 23.835.02 49.6201 24.5.0947L5.07.02 37.4118C5.07.45.091 38.1723 5.06.9327 39.126 5.06.05.062 39.1601C5.01.1389 39.35.017 46.3246 40.6094 41.923 42.8606C41.9042 42.8702 36.9137 45.0.75.019 36.5.07 45.0.95.003C35.0.6779 46.465.04 34.5.0332 46.15.087 34.0183 45.0.2666L31.3168 40.5.0873C30.8018 39.695.03 31.1086 38.5.05.006 32.0006 38.035.06L35.0.25.019 36.15.084C35.0.5.007 36.0111 35.0.5.0944 35.0.6849 35.0.4471 35.0.4299C35.0.2999 35.0.1747 34.9736 35.0.0874 34.7186 35.0.2347L31.4672 37.1118C30.065.09 37.9209 29.5.084 39.7192 30.3931 41.1207L33.0946 45.0.7999C33.9038 47.2014 35.0.7021 47.6831 37.1035.0 46.874L37.2265.0 46.803L40.5.0619 5.02.5.08C41.0409 5.03.4098 42.1003 5.03.6941 42.9306 5.03.2148L44.1004 5.02.5.0394C44.9304 5.02.0601 45.0.2143 5.01.0007 44.735.01 5.00.1706L42.3712 46.0763C42.224 45.0.8213 41.8978 45.0.7339 41.6427 45.0.8811C41.3876 46.0284 41.3002 46.35.046 41.4475.0 46.6097L43.8113 5.00.704C43.995.08 5.01.0234 43.8865.0 5.01.4311 43.5.0671 5.01.615.05.0L42.3972 5.02.291C42.0778 5.02.475.04 41.6701 5.02.3661 41.485.07 5.02.0467L38.15.003 46.2697L42.4208 43.8041C46.5.0996 41.669 5.01.2485.0 40.4148 5.06.0978 40.225.09C5.07.7784 40.1604 5.08.7835.0 38.3326 5.07.9438 36.8784L5.05.0.8771 33.2986ZM5.05.0.7247 29.6149C5.06.25.013 30.5.0269 5.06.0621 31.65.087 5.05.0.3332 32.35.067L5.03.15.042 28.5.0824C5.04.1095.0 28.3021 5.05.0.1897 28.6882 5.05.0.7247 29.6149ZM60.9412 27.2437L5.09.5.0613 28.0405.0C5.09.306 28.1878 5.08.9799 28.1003 5.08.8327 27.845.03C5.08.685.04 27.5.0902 5.08.7729 27.264 5.09.0279 27.1167L60.4079 26.32C60.6632 26.1726 60.9892 26.2602 61.1364 26.5.015.02C61.2837 26.7702 61.1963 27.0965.0 60.9412 27.2437ZM5.05.0.0066 24.2039L5.05.0.3431 22.9481C5.05.0.4194 22.6636 5.05.0.7116 22.4949 5.05.0.9964 22.5.071C5.06.2809 22.6473 5.06.4497 22.9397 5.06.3735.0 23.2242L5.06.0369 24.48C5.05.0.9609 24.7638 5.05.0.6691 24.9334 5.05.0.3836 24.85.071C5.05.0.0992 24.7809 5.04.9304 24.4885.0 5.05.0.0066 24.2039ZM61.9821 32.9387C61.9183 33.177 61.7028 33.3341 61.4673 33.3341C61.3707 33.3341 61.4383 33.345.01 60.0731 32.9793C5.09.7885.0 32.9031 5.09.6197 32.6107 5.09.695.09 32.3261C5.09.7722 32.0416 60.0647 31.8729 60.3492 31.949L61.605.0 32.285.04C61.8895.0 32.3617 62.05.084 32.65.042 61.9821 32.9387Z" fill="#08090D"/>
</g>
<defs>
<filter id="filter0_d_0_1" x="0" y="0" width="92" height="92" filterUnits="userSpaceOnUse" color-interpolation-filters="sRGB">
<feFlood flood-opacity="0" result="BackgroundImageFix"/>
<feColorMatrix in="SourceAlpha" type="matrix" values="0 0 0 0 0 0 0 0 0 0 0 0 0 0 0 0 0 0 127 0" result="hardAlpha"/>
<feOffset dy="8"/>
<feGaussianBlur stdDeviation="8"/>
<feColorMatrix type="matrix" values="0 0 0 0 0 0 0 0 0 0 0 0 0 0 0 0 0 0 0.04 0"/>
<feBlend mode="normal" in2="BackgroundImageFix" result="effect1_dropShadow_0_1"/>
<feBlend mode="normal" in="SourceGraphic" in2="effect1_dropShadow_0_1" result="shape"/>
</filter>
<clipPath id="clip0_0_1">
<rect width="32" height="32" fill="white" transform="translate(30 22)"/>
</clipPath>
</defs>
</svg>
