<svg width="92" height="92" viewBox="0 0 92 92" fill="none" xmlns="http://www.w3.org/2000/svg">
<g filter="url(#filter0_d_0_1)">
<circle cx="46" cy="38" r="30" fill="#FBE9C7"/>
</g>
<g clip-path="url(#clip0_0_1)">
<path d="M55.8771 33.2986C57.9585 31.5984 57.2395 28.2362 54.6386 27.5394C53.959 27.3573 53.2555 27.3952 52.6105 27.6409L50.5439 24.0614C49.703 22.6047 47.6172 22.5661 46.7218 23.9864C44.1799 28.0181 40.7935 31.4471 36.7732 34.0492C36.5442 34.1971 36.4594 34.5027 36.5948 34.7514C36.6166 34.7912 40.0397 40.7196 40.0624 40.7589C40.2096 41.0138 40.5356 41.1014 40.7909 40.9541C41.046 40.8068 41.1334 40.4806 40.9861 40.2255L37.7761 34.6654C41.6096 32.1026 45.0047 28.7098 47.6241 24.5553C48.0926 23.8121 49.1815 23.8352 49.6201 24.5947L57.02 37.4118C57.4591 38.1723 56.9327 39.126 56.0562 39.1601C51.1389 39.3517 46.3246 40.6094 41.923 42.8606C41.9042 42.8702 36.9137 45.7519 36.57 45.9503C35.6779 46.4654 34.5332 46.1587 34.0183 45.2666L31.3168 40.5873C30.8018 39.6953 31.1086 38.5506 32.0006 38.0356L35.2519 36.1584C35.507 36.0111 35.5944 35.6849 35.4471 35.4299C35.2999 35.1747 34.9736 35.0874 34.7186 35.2347L31.4672 37.1118C30.0659 37.9209 29.584 39.7192 30.3931 41.1207L33.0946 45.7999C33.9038 47.2014 35.7021 47.6831 37.1035 46.874L37.2265 46.803L40.5619 52.58C41.0409 53.4098 42.1003 53.6941 42.9306 53.2148L44.1004 52.5394C44.9304 52.0601 45.2143 51.0007 44.7351 50.1706L42.3712 46.0763C42.224 45.8213 41.8978 45.7339 41.6427 45.8811C41.3876 46.0284 41.3002 46.3546 41.4475 46.6097L43.8113 50.704C43.9958 51.0234 43.8865 51.4311 43.5671 51.6155L42.3972 52.291C42.0778 52.4754 41.6701 52.3661 41.4857 52.0467L38.1503 46.2697L42.4208 43.8041C46.5996 41.669 51.2485 40.4148 56.0978 40.2259C57.7784 40.1604 58.7835 38.3326 57.9438 36.8784L55.8771 33.2986ZM55.7247 29.6149C56.2513 30.5269 56.0621 31.6587 55.3332 32.3567L53.1542 28.5824C54.1095 28.3021 55.1897 28.6882 55.7247 29.6149ZM60.9412 27.2437L59.5613 28.0405C59.306 28.1878 58.9799 28.1003 58.8327 27.8453C58.6854 27.5902 58.7729 27.264 59.0279 27.1167L60.4079 26.32C60.6632 26.1726 60.9892 26.2602 61.1364 26.5152C61.2837 26.7702 61.1963 27.0965 60.9412 27.2437ZM55.0066 24.2039L55.3431 22.9481C55.4194 22.6636 55.7116 22.4949 55.9964 22.571C56.2809 22.6473 56.4497 22.9397 56.3735 23.2242L56.0369 24.48C55.9609 24.7638 55.6691 24.9334 55.3836 24.8571C55.0992 24.7809 54.9304 24.4885 55.0066 24.2039ZM61.9821 32.9387C61.9183 33.177 61.7028 33.3341 61.4673 33.3341C61.3707 33.3341 61.4383 33.3451 60.0731 32.9793C59.7885 32.9031 59.6197 32.6107 59.6959 32.3261C59.7722 32.0416 60.0647 31.8729 60.3492 31.949L61.605 32.2854C61.8895 32.3617 62.0584 32.6542 61.9821 32.9387Z" fill="#08090D"/>
</g>
<defs>
<filter id="filter0_d_0_1" x="0" y="0" width="92" height="92" filterUnits="userSpaceOnUse" color-interpolation-filters="sRGB">
<feFlood flood-opacity="0" result="BackgroundImageFix"/>
<feColorMatrix in="SourceAlpha" type="matrix" values="0 0 0 0 0 0 0 0 0 0 0 0 0 0 0 0 0 0 127 0" result="hardAlpha"/>
<feOffset dy="8"/>
<feGaussianBlur stdDeviation="8"/>
<feColorMatrix type="matrix" values="0 0 0 0 0 0 0 0 0 0 0 0 0 0 0 0 0 0 0.04 0"/>
<feBlend mode="normal" in2="BackgroundImageFix" result="effect1_dropShadow_0_1"/>
<feBlend mode="normal" in="SourceGraphic" in2="effect1_dropShadow_0_1" result="shape"/>
</filter>
<clipPath id="clip0_0_1">
<rect width="32" height="32" fill="white" transform="translate(30 22)"/>
</clipPath>
</defs>
</svg>
