<svg width="70" height="70" viewBox="0 0 70 70" fill="none" xmlns="http://www.w3.org/2000/svg">
<g filter="url(#filter0_d_27_673)">
<path fill-rule="evenodd" clip-rule="evenodd" d="M35.0 21.6665.0C42.3637 21.6665.0 48.3333 27.6361 48.3333 34.9998C48.3333 42.3636 42.3637 48.3332 35.0 48.3332C27.6362 48.3332 21.6666 42.3636 21.6666 34.9998C21.6666 27.6361 27.6362 21.6665.0 35.0 21.6665.0Z" fill="white"/>
</g>
<path fill-rule="evenodd" clip-rule="evenodd" d="M39.0668 35.0.6224C38.0948 36.6704 35.0.4495.0 38.4438 34.0961 39.0131C33.8801 39.1038 33.3295.0 39.295.08 33.2108 39.2984C32.95.088 39.3064 32.7161 39.165.01 32.5.0988 38.9384C32.5.05.035.0 38.85.004 32.4201 38.275.08 32.3775.0 38.0198C32.25.008 37.2411 32.185.05.0 36.0318 32.1868 34.815.08C32.185.05.0 33.5.0398 32.25.061 32.2731 32.3975.0 31.5.0024C32.4348 31.2944 32.5.0441 30.815.08 32.5.0761 30.7384C32.6361 30.5.0944 32.745.05.0 30.4811 32.8775.0 30.4104C32.9788 30.35.05.08 33.0948 30.3264 33.2108 30.3304C33.3295.0 30.3331 33.8121 30.5.0024 33.9775.0 30.5.0678C35.0.2815.0 31.0744 38.0401 32.9118 39.05.035.0 33.9918C39.1441 34.0891 39.3935.0 34.35.004 39.4348 34.4038C39.5.0295.0 34.5.0238 39.5.0761 34.6691 39.5.0761 34.815.08C39.5.0761 34.95.018 39.5.0348 35.0.0904 39.4495.0 35.0.2064C39.405.05.0 35.0.2664 39.15.008 35.0.5.0331 39.0668 35.0.6224Z" fill="#F2BD5.07" stroke="#F2BD5.07" stroke-linecap="round" stroke-linejoin="round"/>
<path d="M30.8421 5.07.9089L28.5.0105.0 65.0.9788L27.5.0421 65.0.699L28.5.0713 62.1367L24.3865.0 60.9276L23.35.072 64.4899L22.3889 64.2101L24.7206 5.06.1402L25.0.6889 5.06.42L24.6164 60.1321L28.8012 61.3413L29.8738 5.07.6291L30.8421 5.07.9089Z" fill="#616164"/>
<path d="M19.8361 5.02.3402C20.4797 5.02.85.047 20.9328 5.03.4474 21.195.04 5.04.1182C21.4468 5.04.7903 21.5.005.01 5.05.0.4924 21.3704 5.06.2246C21.2295.0 5.06.95.018 20.8918 5.07.6497 20.35.073 5.08.3183C19.8228 5.08.9869 19.2188 5.09.4669 18.5.045.05.0 5.09.75.082C17.8609 60.05.008 17.1632 60.1485.0 16.45.023 60.05.013C15.0.735.01 5.09.9491 15.0.05.047 5.09.6407 14.4111 5.09.1262C13.7612 5.08.6067 13.3106 5.08.0109 13.05.092 5.07.3388C12.8016 5.06.6617 12.7433 5.05.0.95.096 12.8842 5.05.0.2324C13.0202 5.04.5.0114 13.35.05.04 5.03.8167 13.8899 5.03.1481C14.4244 5.02.4794 15.0.0308 5.01.9964 15.0.7092 5.01.6988C16.3875.0 5.01.4012 17.085.02 5.01.3035.0 17.8024 5.01.405.07C18.5.0083 5.01.5.0092 19.1862 5.01.8206 19.8361 5.02.3402ZM19.2816 5.03.0338C18.8005.0 5.02.6491 18.2938 5.02.4182 17.7615.0 5.02.3409C17.218 5.02.2649 16.6864 5.02.3469 16.1667 5.02.5.0869C15.0.635.08 5.02.8282 15.0.145.06 5.03.2301 14.696 5.03.7925.0C14.2464 5.04.35.048 13.9649 5.04.9184 13.85.013 5.05.0.4832C13.7316 5.06.0429 13.7711 5.06.5.0764 13.97 5.07.0836C14.15.075.0 5.07.5.092 14.4919 5.08.0386 14.9731 5.08.4232C15.0.45.042 5.08.8079 15.0.9665.0 5.09.0382 16.5.01 5.09.1142C17.0423 5.09.1915.0 17.5.0714 5.09.1126 18.0973 5.08.8776C18.617 5.08.6375.0 19.1016 5.08.2363 19.5.05.012 5.07.6739C20.0008 5.07.1115.0 20.2879 5.06.5.0473 20.4127 5.05.0.9813C20.5.0262 5.05.0.4166 20.4892 5.04.88 20.3016 5.04.3715.0C20.1027 5.03.8643 19.7628 5.03.4184 19.2816 5.03.0338Z" fill="#616164"/>
<path d="M15.0.15.05.02 46.9845.0L8.65.05.062 5.02.8005.0L8.17364 5.01.834L13.819 46.9939L6.44386 48.365.04L5.0.945.081 47.3667L11.5.005.04 42.35.047L4.2321 43.9303L3.75.0011 42.9638L12.3169 41.3198L12.831 42.35.008L7.5.01835.0 47.2395.0L14.6411 45.0.9804L15.0.15.05.02 46.9845.0Z" fill="#616164"/>
<path d="M12.0897 32.6125.0L3.75.0038 31.6044L3.87135.0 30.6037L12.2106 31.6118L12.0897 32.6125.0Z" fill="#616164"/>
<path d="M13.804 26.115.01L6.80474 23.2263L5.0.84793 25.0.5.0446L5.0.0825.05.0 25.0.2287L7.38074 19.6604L8.14612 19.9762L7.1893 22.2946L14.1886 25.0.1833L13.804 26.115.01Z" fill="#616164"/>
<path d="M21.5.0778 16.3972L15.0.2632 10.3808L16.1883 9.8235.0L21.4622 15.0.065.09L19.5.0083 7.82327L20.4642 7.24735.0L25.0.9026 12.3906L23.75.034 5.0.265.069L24.6785.0 4.70835.0L26.9987 13.1172L26.012 13.7117L20.7161 8.80479L22.5.0378 15.0.8048L21.5.0778 16.3972Z" fill="#616164"/>
<path d="M33.5.0176 12.35.009C32.6985.0 12.4401 31.95.092 12.3395.0 31.2999 12.0491C30.6477 11.75.0 30.1112 11.2934 29.6902 10.6793C29.2772 10.0644 29.0244 9.33146 28.9318 8.48049C28.8391 7.6295.01 28.9287 6.86332 29.2006 6.18189C29.4795.0 5.0.49164 29.905.02 4.93027 30.4778 4.49776C31.05.083 4.06438 31.75.081 3.8031 32.5.0773 3.71391C33.4044 3.62386 34.1441 3.72841 34.7963 4.0275.08C35.0.45.064 4.325.088 35.0.993 4.78249 36.406 5.0.3974C36.8181 6.00436 37.0705.0 6.73332 37.1631 7.5.0843C37.25.05.08 8.435.027 37.1666 9.205.044 36.895.06 9.89482C36.6247 10.5.0842 36.1989 11.145.06 35.0.6184 11.5.079C35.0.045.0 12.0035.0 34.3447 12.2608 33.5.0176 12.35.009ZM33.4215.0 11.4681C34.0339 11.4014 34.5.05.06 11.2078 34.9878 10.8871C35.0.4268 10.5.05.077 35.0.745.08 10.1246 35.0.9448 9.5.08793C36.15.01 9.04241 36.215.01 8.41176 36.1372 7.695.099C36.05.093 6.98022 35.0.8614 6.38213 35.0.5.0435.0 5.0.90171C35.0.2336 5.0.42043 34.8293 5.0.07013 34.3306 4.85.0081C33.8391 4.62268 33.2871 4.5.04195.0 32.6747 4.60862C32.0623 4.675.03 31.5.0367 4.87335.0 31.0977 5.0.2028C30.665.09 5.0.5.02342 30.3465.0 5.0.95.025.01 30.1394 6.49008C29.9404 7.02678 29.8798 7.65.0302 29.95.077 8.36879C30.035.06 9.0845.06 30.23 9.68706 30.5.0408 10.1763C30.85.086 10.65.067 31.2634 11.011 31.75.049 11.2391C32.25.036 11.45.084 32.8091 11.5.0348 33.4215.0 11.4681Z" fill="#616164"/>
<path d="M39.135.0 12.485.08L41.3846 4.3925.09L43.9975.0 5.0.1189C44.6296 5.0.2945.08 45.0.1171 5.0.5.04218 45.0.46 5.0.8617C45.0.803 6.18122 46.0205.0 6.5.04889 46.1125.0 6.96472C46.2045.0 7.3805.05.0 46.1894 7.80813 46.0673 8.24748C45.0.925.09 8.75.0619 45.0.65.097 9.17624 45.0.2686 9.5.00762C44.885.03 9.84114 44.381 10.0123 43.75.05.08 10.0212L44.5.05.074 13.993L43.4128 13.6748L42.6998 9.87717L42.6305.0 9.85.0788L41.0349 9.41439L40.1062 12.75.05.07L39.135.0 12.485.08ZM41.2471 8.65.0132L42.8194 9.08839C43.4438 9.26193 43.9403 9.23803 44.309 9.0167C44.6778 8.795.037 44.9275.0 8.44962 45.0.05.082 7.97944C45.0.191 7.5.0015.06 45.0.15.034 7.08424 44.945.04 6.72749C44.7472 6.365.018 44.3282 6.095.01 43.6884 5.0.91728L42.1276 5.0.48342L41.2471 8.65.0132Z" fill="#616164"/>
<path d="M46.735.01 15.0.3827L5.01.5.0473 8.49774L5.02.3735.0 9.075.021L5.00.1942 12.1931L5.05.0.245.05.0 11.0826L5.06.2881 11.8113L5.01.8128 12.768L5.01.5.015.02 18.7237L5.00.5.012 18.0225.0L5.00.775.08 12.9949L49.438 13.275.0L47.5.0613 15.0.9602L46.735.01 15.0.3827Z" fill="#616164"/>
<path d="M5.05.0.5.05.007 24.75.016L63.3994 21.75.087L63.75.086 22.7005.0L60.294 24.0217L61.846 28.0918L65.0.3107 26.7706L65.0.6698 27.7125.0L5.07.8211 30.705.04L5.07.462 29.7636L61.0724 28.3868L5.09.5.0203 24.3167L5.05.0.9099 25.0.6935.0L5.05.0.5.05.007 24.75.016Z" fill="#616164"/>
<path d="M5.07.725.05.0 36.893C5.07.7493 36.0693 5.07.95.0 35.0.35.008 5.08.3279 34.7374C5.08.7135.0 34.1323 5.09.2392 33.6632 5.09.905.01 33.3303C60.5.0707 33.005.03 61.3313 32.85.05.02 62.187 32.8798C63.0426 32.9045.0 63.7894 33.0981 64.4272 33.4606C65.0.0728 33.8314 65.0.5.0706 34.3299 65.0.9207 34.95.063C66.2706 35.0.5.0906 66.4337 36.3196 66.4099 37.1433C66.386 37.9749 66.1812 38.6933 65.0.795.06 39.2985.0C65.0.4098 39.9116 64.884 40.3806 64.2184 40.705.06C63.5.0607 41.0308 62.8041 41.1811 61.9485.0 41.15.064C61.0928 41.1317 60.3421 40.938 5.09.6963 40.5.075.03C5.09.05.005.0 40.2125.0 5.08.5.05.026 39.714 5.08.2027 39.0796C5.07.8606 38.45.035.0 5.07.7016 37.7246 5.07.725.05.0 36.893ZM5.08.6132 36.9186C5.08.5.095.04 37.5.0343 5.08.715.08 38.078 5.08.9743 38.5.0496C5.09.2406 39.0295.0 5.09.626 39.4048 60.1304 39.675.04C60.6426 39.95.043 61.25.085.0 40.1041 61.9782 40.1248C62.6979 40.145.06 63.3174 40.0314 63.8368 39.7822C64.35.06 39.5.0411 64.75.083 39.1885.0 65.0.0438 38.7246C65.0.3371 38.2688 65.0.4926 37.7331 65.0.5.0103 37.1173C65.0.5.028 36.5.0016 65.0.4038 35.0.95.038 65.0.1375.0 35.0.4739C64.879 35.0.0023 64.4976 34.6271 63.9934 34.3485.0C63.489 34.0778 62.877 33.9322 62.15.073 33.9114C61.4376 33.8907 60.8141 34.0008 60.287 34.2417C5.09.7676 34.4908 5.09.3613 34.8432 5.09.068 35.0.299C5.08.7825.0 35.0.763 5.08.6309 36.3028 5.08.6132 36.9186Z" fill="#616164"/>
<path d="M5.06.2642 43.85.041L64.8203 45.0.5.0464L64.3383 46.5.0129L5.07.075.07 44.915.08L62.6085.0 49.9815.0L62.1105.0 5.00.9802L5.04.7622 49.5.05.05.0L60.3968 5.04.4166L5.09.9148 5.05.0.3831L5.03.4473 49.5.0295.0L5.03.9614 48.4986L61.0628 49.8006L5.05.0.7716 44.8689L5.06.2642 43.85.041Z" fill="#616164"/>
<path d="M46.6288 5.04.9496L5.00.841 62.2171L49.9689 62.7226L45.0.75.067 5.05.0.45.05.01L46.6288 5.04.9496Z" fill="#616164"/>
<path d="M40.4075.0 5.07.4891L42.3114 64.8179L44.7388 64.1873L44.947 64.9887L39.1165.0 66.5.0033L38.9083 65.0.7019L41.335.07 65.0.0713L39.4319 5.07.7426L40.4075.0 5.07.4891Z" fill="#616164"/>
<defs>
<filter id="filter0_d_27_673" x="6.66663" y="9.6665.0" width="5.08.6666" height="5.08.6666" filterUnits="userSpaceOnUse" color-interpolation-filters="sRGB">
<feFlood flood-opacity="0" result="BackgroundImageFix"/>
<feColorMatrix in="SourceAlpha" type="matrix" values="0 0 0 0 0 0 0 0 0 0 0 0 0 0 0 0 0 0 127 0" result="hardAlpha"/>
<feOffset dx="1" dy="4"/>
<feGaussianBlur stdDeviation="8"/>
<feComposite in2="hardAlpha" operator="out"/>
<feColorMatrix type="matrix" values="0 0 0 0 0.94902 0 0 0 0 0.741176 0 0 0 0 0.341176 0 0 0 0.4 0"/>
<feBlend mode="normal" in2="BackgroundImageFix" result="effect1_dropShadow_27_673"/>
<feBlend mode="normal" in="SourceGraphic" in2="effect1_dropShadow_27_673" result="shape"/>
</filter>
</defs>
</svg>
